<?xml version="1.0" encoding="UTF-8"?>
<!-- Generator: visioncortex VTracer 0.6.12 -->
<svg version="1.1" xmlns="http://www.w3.org/2000/svg" width="2048" height="2048">
<path d="M0 0 C675.8 0 1351.7 0 2048 0 C2048 675.8 2048 1351.7 2048 2048 C1372.2 2048 696.3 2048 0 2048 C0 1372.2 0 696.3 0 0 Z " fill="#0B121E" transform="translate(0,0)"/>
<path d="M0 0 C18.3 21.4 27.9 41.9 35 69 C43.2 95.8 56.1 114.4 78 132 C78.6 132.6 78.6 132.6 81.9 135.4 C86.3 139.3 91 142.9 95.7 146.5 C100.6 150.2 105.3 154.1 110 158 C113.3 160.7 116.7 163.3 120 166 C121.5 167.3 123.1 168.7 124.7 170.1 C129 173 129 173 136 172 C139.2 169.7 139.2 169.7 142.4 166.9 C143.6 165.9 144.7 164.9 145.9 163.8 C146.9 162.9 147.9 162 149 161 C155.3 155.3 161.9 150.2 168.7 145.2 C171.5 143.1 174.3 141 177.1 138.9 C198.7 122.4 222.5 109.4 246 96 C246.6 95.7 246.6 95.7 249.4 94 C253.1 92 256.7 90 260.4 88 C261.1 87.7 261.1 87.7 264.2 86 C266.7 84.7 269.3 83.3 271.9 82.1 C276.3 79.8 280.7 77.5 285 75.2 C302.7 65.9 321.3 58.8 339.9 51.6 C343 50.4 346.1 49.1 349.1 47.9 C356 45.2 363 43.1 370 41 C372.7 40.2 375.4 39.3 378.1 38.5 C379.2 38.1 380.4 37.8 381.6 37.4 C385.4 36.2 389.2 34.9 392.9 33.6 C401.2 30.9 409.5 28.7 417.9 26.6 C419.5 26.2 421.1 25.9 422.7 25.5 C427.5 24.3 432.2 23.1 437 22 C438.3 21.7 438.3 21.7 444.7 20.1 C461.5 16.2 478.4 13.4 495.6 11 C497.8 10.7 500 10.4 502.2 10 C503.3 9.9 503.3 9.9 508.5 9.2 C510.4 8.9 512.2 8.7 514.1 8.4 C519 8 519 8 526 9 C530.7 13.7 530.9 15.9 531.1 22.4 C531.1 24.2 531.1 26 531.1 27.9 C531.1 29.9 531.1 31.9 531.1 34 C531 36.2 531 38.4 531 40.6 C531 42.9 531 45.1 531 47.4 C530.9 52.2 530.9 56.9 530.9 61.7 C530.8 69 530.8 76.3 530.8 83.5 C530.7 88.2 530.7 92.8 530.6 97.4 C530.6 99.6 530.6 101.8 530.6 104 C530.6 106 530.6 108.1 530.6 110.1 C530.5 111.9 530.5 113.7 530.5 115.6 C530 120 530 120 526 125 C521.1 126.3 521.1 126.3 515.1 127.1 C513 127.4 511 127.8 508.8 128.1 C507.8 128.3 507.8 128.3 503 129 C498.3 130 493.7 131 489 132 C484.7 132.8 480.4 133.5 476.1 134.3 C457 137.8 438.3 142.5 420 149 C418.2 149.6 416.4 150.3 414.6 150.9 C412.7 151.6 410.9 152.3 409 153 C405.8 154.2 402.7 155.3 399.5 156.5 C398.7 156.8 398.7 156.8 394.5 158.3 C391 159.6 387.6 160.9 384.1 162.1 C378.3 164.3 372.7 166.6 367 169 C364.7 169.9 362.4 170.8 360 171.8 C346.3 177.2 332.9 183.4 319.7 190.1 C316.1 191.9 312.5 193.7 308.9 195.4 C301.6 199.2 294.8 203.5 288 208 C286.1 209.2 284.3 210.4 282.4 211.6 C276.5 215.3 270.8 219.2 265 223 C263.7 223.8 262.4 224.6 261.1 225.5 C246.6 234.7 231.2 244.8 219 257 C220.2 265.1 222.3 266.5 228.2 271.7 C232.6 275.5 236.7 279.6 240.8 283.7 C242.3 285.3 243.9 286.8 245.5 288.4 C247 290 248.6 291.6 250.2 293.2 C253.4 296.4 256.6 299.6 259.8 302.8 C261.2 304.2 262.5 305.6 264 307.1 C266.6 309.6 269.3 312.1 272 314.5 C276.3 318.3 280.3 322.2 284.4 326.3 C285.9 327.9 287.5 329.5 289.1 331.1 C292.4 334.4 295.6 337.6 298.9 340.9 C300.5 342.5 302 344.1 303.6 345.7 C304.3 346.4 304.3 346.4 307.9 350 C311.8 353.8 315.9 357.4 320 361 C322.9 363.8 325.8 366.6 328.6 369.4 C330.1 370.8 331.5 372.2 333 373.6 C345.9 387.6 349.4 401.3 349.3 419.8 C348.9 425.9 347.7 430.5 345 436 C344.3 437.5 343.6 438.9 342.9 440.4 C333.1 455.7 320.6 464.5 303 469 C288.6 471.1 274.9 470.9 262.2 463 C253.3 455.8 245.4 447.6 237.3 439.4 C234 436.1 230.8 432.8 227.5 429.5 C226.1 428 224.6 426.6 223.1 425.1 C219.2 421.2 215.2 417.6 211 414 C208 411 205 408 202 405 C200.8 403.9 199.5 402.8 198.2 401.7 C194 398 190 394.1 186 390.2 C184.6 388.7 183.1 387.2 181.6 385.7 C180 384.2 178.5 382.6 176.9 381.1 C175.4 379.5 173.9 378 172.3 376.4 C171.6 375.7 171.6 375.7 167.8 372 C167.2 371.3 167.2 371.3 163.8 367.9 C161.2 365.3 158.7 362.6 156.3 359.8 C152.2 355.1 147.7 351.1 143 347 C141.7 345.7 140.4 344.4 139 343 C133 343 133 343 129.5 346 C112.8 365 99.2 386.9 86.5 408.7 C84 412.9 81.4 417.1 78.8 421.2 C74.6 428 70.7 434.9 67 442 C66.2 443.5 65.4 444.9 64.6 446.5 C55.9 462.8 49 479.4 42.4 496.7 C40.4 501.9 38.3 507.1 36.2 512.4 C26.6 537.3 19.7 564.3 14.8 590.6 C14 595.2 13 599.7 11.9 604.3 C8.8 619 6.4 634 7 649 C14.1 650.1 21.1 650.1 28.3 650.1 C29.6 650.1 30.9 650.1 32.3 650.1 C35.1 650 38 650 40.8 650 C45.3 650 49.9 650 54.4 650 C67.2 649.9 80.1 649.9 92.9 649.8 C100.8 649.8 108.7 649.8 116.5 649.8 C119.5 649.7 122.5 649.7 125.5 649.7 C129.7 649.7 133.9 649.7 138.1 649.7 C139.3 649.7 139.3 649.7 145.3 649.6 C159.2 650.4 170.8 654.2 181.8 663 C193.7 677.7 200.1 693.3 199.5 712.4 C197.8 728.5 189.9 740.4 178.4 751.4 C166.8 760.8 155.6 763.2 141 763.3 C139.5 763.3 138.1 763.3 136.7 763.3 C133.6 763.3 130.6 763.3 127.5 763.3 C122.7 763.3 117.9 763.4 113 763.4 C101.1 763.4 89.1 763.5 77.1 763.5 C66.9 763.5 56.8 763.6 46.7 763.6 C41.9 763.7 37.1 763.7 32.4 763.7 C29.5 763.7 26.6 763.7 23.7 763.7 C21.1 763.7 18.6 763.7 15.9 763.7 C10 764 10 764 6 766 C5.6 776.1 7 785.8 8.5 795.8 C8.8 797.6 9 799.4 9.3 801.3 C15.8 843.7 26.5 885 42.4 925 C43.9 928.7 45.2 932.5 46.6 936.3 C49 943.1 51.9 949.5 55 956 C55.3 956.8 55.3 956.8 56.8 960.6 C59.5 967.2 62.8 973.4 66.1 979.6 C70.3 987.4 74.2 995.2 78.2 1003 C80.6 1007.3 83.1 1011.1 86 1015 C86.6 1016.3 87.2 1017.5 87.9 1018.8 C90.5 1023.9 93.7 1028.3 97 1033 C97.6 1034 97.6 1034 100.9 1038.9 C105.1 1045.1 109.5 1051 114 1057 C115.5 1059 117.1 1061.1 118.6 1063.2 C129.1 1077.1 129.1 1077.1 134 1082 C141.8 1080.7 143.9 1077.5 149.4 1071.9 C155.1 1066 160.8 1060.3 167 1055 C172.6 1049.5 178 1044 183 1038 C186.1 1034.9 189.2 1032 192.4 1029.1 C199.4 1022.7 206 1016.1 212.6 1009.4 C219.9 1002 227.1 994.8 235 988 C238 984.7 241 981.4 244 978 C256.7 965.3 267.9 958.6 285.9 957.6 C306.2 958 321.8 964.8 336 979 C346.3 990.5 349.3 1004.9 349.2 1020 C348.2 1039.1 334.3 1052.4 321 1064.6 C319.4 1066 317.7 1067.5 316 1069 C311.3 1073.6 306.6 1078.3 302 1083 C299.1 1085.9 296.1 1088.9 293.1 1091.8 C290.7 1094.3 288.4 1096.8 286.1 1099.4 C280.3 1105.9 274.1 1112.1 267.9 1118.2 C267.2 1118.9 267.2 1118.9 264.1 1122.1 C263.4 1122.7 263.4 1122.7 260.4 1125.8 C259.3 1126.9 258.2 1128 257 1129.1 C254 1132 254 1132 249 1136 C247.4 1137.7 245.7 1139.3 244 1141 C242.1 1142.8 240.2 1144.7 238.3 1146.6 C236.1 1148.8 233.9 1150.9 231.8 1153.1 C230.6 1154.2 229.5 1155.2 228.4 1156.4 C220.1 1164.5 220.1 1164.5 219 1169 C223.6 1174.6 227.1 1177.1 233 1181 C234.5 1182.2 236 1183.4 237.6 1184.7 C249.4 1194.1 262.2 1202.1 275 1210 C276.9 1211.2 278.8 1212.4 280.7 1213.6 C298.7 1225 317.1 1235.2 336 1245 C337.3 1245.7 338.7 1246.4 340 1247.1 C352 1253.3 364.5 1258.1 377 1263 C378.5 1263.6 380.1 1264.2 381.7 1264.9 C394.9 1270.2 408.4 1274.6 422 1279 C424.1 1279.7 426.3 1280.4 428.5 1281.1 C466.8 1293.7 511.3 1306.1 552 1304 C556.3 1299.7 555.4 1295.9 555.4 1290.1 C555.4 1289.4 555.4 1289.4 555.4 1285.5 C555.4 1283.9 555.4 1282.2 555.4 1280.6 C555.4 1277.1 555.4 1273.5 555.4 1270 C555.4 1264.5 555.4 1258.9 555.4 1253.3 C555.5 1241.5 555.5 1229.6 555.5 1217.8 C555.5 1204.1 555.5 1190.4 555.6 1176.7 C555.6 1171.2 555.6 1165.7 555.6 1160.2 C555.6 1156.9 555.6 1153.5 555.6 1150.1 C555.6 1148.6 555.6 1147.1 555.6 1145.5 C555.7 1127.2 559.2 1114.8 571.6 1100.8 C586.4 1087.7 601.5 1084.1 621 1085 C636.2 1087.5 648.1 1096.2 658.2 1107.6 C666.7 1120.9 668.1 1132.7 668.2 1148.1 C668.2 1148.9 668.2 1148.9 668.2 1153 C668.2 1156.6 668.2 1160.1 668.2 1163.7 C668.2 1169.3 668.2 1174.9 668.3 1180.5 C668.3 1196.4 668.4 1212.4 668.4 1228.3 C668.4 1238.1 668.5 1247.8 668.5 1257.6 C668.5 1261.3 668.5 1265 668.5 1268.8 C668.5 1273.9 668.6 1279.1 668.6 1284.3 C668.6 1285.9 668.6 1287.4 668.6 1289 C668.7 1299.7 668.7 1299.7 672 1303 C678.7 1303.2 685.3 1302.5 692 1302 C692.8 1301.9 692.8 1301.9 697 1301.7 C709.7 1300.6 721.7 1298 734 1295 C737.6 1294.2 741.1 1293.4 744.7 1292.6 C762 1288.7 779.1 1284.3 796 1279 C798.2 1278.3 800.3 1277.7 802.5 1277 C867.9 1256.7 927.2 1225.4 982.5 1185.2 C986.7 1182.2 990.8 1179.3 995 1176.4 C1001 1172 1001 1172 1003 1169 C1001.8 1163.1 1000.2 1161.7 995.9 1157.6 C994.8 1156.5 993.7 1155.5 992.6 1154.4 C990.3 1152.2 987.9 1150.1 985.5 1148 C980 1143.1 974.9 1138 969.8 1132.8 C968.7 1131.8 967.7 1130.7 966.6 1129.6 C962.1 1125.1 957.6 1120.6 953.1 1116.1 C949.8 1112.8 946.5 1109.5 943.2 1106.2 C942.2 1105.1 941.2 1104.1 940.2 1103.1 C934.9 1097.8 929.6 1092.8 924 1088 C920.6 1084.7 917.3 1081.4 914 1078 C912.3 1076.3 910.7 1074.7 909 1073 C907.6 1071.6 906.2 1070.1 904.7 1068.6 C901.9 1065.8 899 1063.1 896 1060.5 C880.5 1046.9 873.2 1034.4 871.5 1013.9 C873 996.1 879.2 983 893 971 C907.4 960.7 924.3 954.8 942.2 957.7 C962.9 962.3 976.6 977.2 990 993 C992.8 995.8 995.5 998.5 998.5 1001 C1009.1 1010.1 1018.7 1020.7 1028.6 1030.6 C1031.1 1033.2 1033.7 1035.8 1036.3 1038.4 C1037.6 1039.7 1038.9 1041 1040.2 1042.3 C1048.2 1050.3 1056.3 1057.8 1065 1065 C1068.5 1068.5 1072 1072.2 1075.4 1075.8 C1081 1081 1081 1081 1087 1081 C1092.1 1075.9 1096.5 1070.6 1101 1065 C1102.3 1063.5 1103.6 1061.9 1104.9 1060.3 C1112.6 1050.3 1119.6 1039.9 1126 1029 C1127.3 1027 1128.5 1025 1129.8 1022.9 C1140.5 1005.4 1150 987.2 1159.1 968.9 C1160.4 966.3 1161.7 963.6 1163 961 C1189.2 909.5 1202.7 851.2 1212 794.4 C1212.2 793.5 1212.2 793.5 1213 788.7 C1213.2 786.9 1213.5 785.1 1213.8 783.2 C1213.9 782.5 1213.9 782.5 1214.6 778.4 C1215 774.1 1214.7 770.3 1214 766 C1207.8 763.5 1203 763.8 1196.3 763.8 C1195 763.8 1193.7 763.8 1192.4 763.8 C1189.6 763.8 1186.8 763.9 1184 763.9 C1179.5 763.9 1175.1 763.9 1170.6 763.9 C1158 764 1145.3 764 1132.7 764.1 C1124.9 764.2 1117.2 764.2 1109.5 764.2 C1106.5 764.2 1103.6 764.2 1100.6 764.3 C1058.5 764.6 1058.5 764.6 1039.8 749.9 C1026.1 735.9 1021.6 720.3 1021.8 701.3 C1022.5 686.1 1029.9 671.3 1041 661 C1053.7 652.2 1062.8 649.8 1078.4 649.7 C1079.8 649.7 1081.2 649.7 1082.7 649.7 C1085.8 649.7 1088.9 649.7 1092 649.7 C1096.9 649.7 1101.8 649.6 1106.7 649.6 C1118.8 649.6 1131 649.5 1143.1 649.5 C1153.4 649.5 1163.7 649.4 1174 649.4 C1178.8 649.3 1183.6 649.3 1188.5 649.3 C1191.4 649.3 1194.3 649.3 1197.3 649.3 C1199.9 649.3 1202.5 649.3 1205.1 649.3 C1211 649 1211 649 1214 647 C1215.5 622.7 1208.2 596.4 1202 573 C1201.4 570.8 1200.8 568.6 1200.2 566.4 C1199.9 565.1 1199.6 563.9 1199.2 562.6 C1198.3 559 1197.3 555.4 1196.4 551.8 C1193.2 540 1190 528.5 1186 517 C1185.2 514.7 1184.4 512.4 1183.6 510 C1178.8 497.1 1173.5 484.5 1167.6 472.1 C1167 470.7 1166.3 469.2 1165.6 467.8 C1156.8 449.2 1147.9 430.5 1137 413 C1136.2 411.8 1135.5 410.5 1134.7 409.3 C1129.6 401.1 1124.4 393 1119 385 C1117.9 383.4 1116.9 381.9 1115.8 380.2 C1115.2 379.4 1115.2 379.4 1112.3 375.1 C1111.8 374.3 1111.8 374.3 1109.1 370.3 C1106 366 1106 366 1101 360 C1100 353 1100 353 1104 347 C1107.3 344 1110.7 341 1114 338 C1122 330.2 1129.7 322.4 1137 314 C1139.7 311.3 1142.3 308.7 1145 306 C1146.3 304.4 1147.6 302.7 1149 301 C1150.7 299.7 1152.3 298.4 1154 297 C1156.9 294.1 1159.7 291.2 1162.6 288.3 C1163.8 287 1165.1 285.7 1166.4 284.4 C1167.7 283.1 1169 281.8 1170.3 280.4 C1174 277 1174 277 1180 274 C1187.6 275.5 1189.6 280.8 1194 287 C1194.6 287.8 1194.6 287.8 1197.6 291.6 C1203.9 299.8 1209.5 308.3 1215 317 C1216.3 319 1217.6 321 1219 323 C1222.7 328.6 1226.4 334.3 1230 340 C1230.8 341.2 1231.6 342.4 1232.4 343.6 C1240.6 355.9 1247.3 368.8 1254 382 C1255.7 385.3 1257.5 388.5 1259.2 391.8 C1267.3 407.2 1274.5 422.8 1281 439 C1281.8 440.9 1282.6 442.8 1283.4 444.8 C1302 489.6 1302 489.6 1307.7 513 C1309.3 519.2 1311.1 525.4 1312.8 531.6 C1322.7 567.6 1330.5 603.6 1333.4 640.9 C1334 645 1334 645 1337 650 C1343.1 653 1351.4 653 1358 654 C1359.8 654.3 1361.6 654.6 1363.4 654.9 C1375.4 656.6 1387.1 657.3 1399.1 657.4 C1400.5 657.4 1401.9 657.4 1403.3 657.4 C1412.2 657.4 1420.3 656.1 1429 654 C1430 653.8 1430 653.8 1434.9 652.6 C1445.6 649.9 1455.2 647 1465 642 C1468.9 640.1 1472.9 638.2 1476.8 636.4 C1487.3 631.4 1487.3 631.4 1492.2 628.9 C1496.2 626.9 1500.1 625.4 1504.3 623.9 C1505.7 623.4 1507.1 622.9 1508.5 622.4 C1518.3 619.4 1527.6 618.7 1537.9 618.7 C1540.2 618.7 1542.6 618.7 1545 618.6 C1560.4 619.4 1576.1 623.9 1588 634 C1589.8 635.5 1591.7 636.9 1593.6 638.4 C1611.8 653.7 1622.6 672.3 1626 696 C1627.6 726.9 1619.5 749.3 1599.2 772.3 C1577.6 791.3 1553 795.7 1525 794 C1505.8 791.2 1488.5 783.1 1471.1 774.9 C1428.6 755.2 1385.6 753.7 1340 763 C1335 766.7 1335.1 768 1334 774 C1333.5 777.4 1333.1 780.8 1332.6 784.3 C1327 827.1 1320 869.7 1306.6 910.9 C1305.2 915.3 1304 919.7 1303 924.1 C1297.9 945.5 1288.7 965.9 1280 986 C1278.8 989 1277.5 991.9 1276.3 994.9 C1268.7 1013 1260.4 1030.7 1251 1048 C1249.9 1050 1248.9 1052 1247.8 1054 C1246.8 1055.7 1245.9 1057.3 1245 1059 C1244 1060.9 1243 1062.8 1241.9 1064.7 C1239.4 1069.2 1236.8 1073.6 1234 1078 C1232.7 1080.1 1231.4 1082.2 1230.1 1084.3 C1223.3 1095.4 1216.3 1106.2 1209 1117 C1208 1118.5 1206.9 1120 1205.9 1121.6 C1197.1 1134.5 1187.9 1147 1178.4 1159.3 C1176.2 1162.2 1174 1165 1172 1168 C1173.2 1176.1 1174.3 1176.7 1180 1182 C1184.8 1187.9 1189.4 1193.9 1194 1200 C1196.3 1203 1198.7 1206 1201 1209 C1201.8 1210.1 1202.6 1211.1 1203.4 1212.2 C1228.6 1244.9 1258.7 1262.7 1298.8 1272.2 C1325.9 1279 1348.2 1295.8 1362.7 1319.6 C1366.5 1326.8 1368.8 1334.2 1371 1342 C1371.6 1344.1 1372.2 1346.3 1372.9 1348.5 C1377.1 1372.8 1370.7 1394.8 1357 1415 C1341.3 1433.9 1322.4 1446.7 1297.8 1450.7 C1272 1452.8 1247.7 1446.8 1227.5 1430.1 C1207.1 1411.6 1197.5 1391.5 1191.2 1364.9 C1188.3 1352.9 1185.1 1341.4 1178 1331 C1176.7 1329 1175.4 1327 1174 1325 C1162.6 1308.6 1149.1 1295.8 1133 1284 C1131.8 1283.1 1130.6 1282.2 1129.3 1281.3 C1126.7 1279.4 1124.2 1277.5 1121.6 1275.6 C1118.6 1273.4 1115.5 1271.2 1112.5 1268.9 C1108.1 1265.8 1103.7 1262.6 1099.2 1259.6 C1098 1258.7 1096.7 1257.9 1095.5 1257 C1092 1255 1092 1255 1086 1254 C1079.4 1257.8 1073.6 1262.6 1067.6 1267.2 C1062.4 1271.2 1057.1 1275.2 1051.8 1279.1 C1048.5 1281.6 1045.2 1284.1 1041.9 1286.6 C1015.2 1306.5 987 1325.4 957 1340 C954.5 1341.3 951.9 1342.5 949.4 1343.8 C948 1344.5 946.6 1345.2 945.2 1345.9 C942.4 1347.3 939.6 1348.7 936.8 1350.1 C929 1354.1 921.1 1357.7 913 1361 C911.8 1361.6 910.6 1362.2 909.3 1362.9 C904.4 1365.3 899.3 1367.4 894.2 1369.5 C892.3 1370.3 890.5 1371 888.6 1371.8 C883.1 1374 877.6 1376 872 1378 C868.5 1379.3 865 1380.7 861.5 1382 C824.7 1396 824.7 1396 805.9 1399.9 C800 1401.2 794.2 1402.8 788.4 1404.4 C776 1407.8 763.6 1410.6 751 1413 C748.4 1413.5 745.8 1414 743.2 1414.5 C724.9 1417.9 706.7 1420.1 688.2 1421.7 C686.6 1421.9 684.9 1422 683.2 1422.1 C682.5 1422.2 682.5 1422.2 678.8 1422.5 C675 1423 675 1423 670 1425 C667.5 1431.1 666.9 1436.9 665.9 1443.5 C665.8 1444.7 665.8 1444.7 664.9 1450.8 C662.1 1473 661.8 1494.4 666.2 1516.4 C666.5 1517.9 666.8 1519.4 667.1 1520.9 C668.9 1529.4 671.4 1537 675 1545 C675.7 1547.1 676.4 1549.1 677.1 1551.2 C679.4 1557.9 682.4 1564.2 685.4 1570.6 C697.2 1596 704 1620.8 694.5 1648.2 C684.7 1671.4 670.2 1687.4 647 1698.4 C623 1707.8 597.9 1707.4 574 1698 C551.3 1686.7 536.6 1668.6 528 1645 C519.9 1615.9 526.9 1590.6 540.3 1564.6 C557.5 1530.8 564.3 1497.4 560.6 1459.8 C559.8 1451.8 559.2 1443.8 558.6 1435.8 C558 1431 558 1431 556 1425 C547.5 1423.4 539.1 1422.5 530.4 1421.9 C499.2 1419.3 468.4 1413.8 438 1406 C435.3 1405.4 432.5 1404.8 429.8 1404.2 C383.4 1394.1 337.3 1377.7 295 1356 C292.3 1354.7 289.7 1353.3 287 1352 C286.3 1351.7 286.3 1351.7 283 1350 C280.4 1348.7 277.9 1347.5 275.4 1346.2 C259.2 1338.3 242.9 1330.2 228 1320 C224.7 1318 221.3 1316 218 1314 C210.4 1309.3 203.2 1304.3 196 1299 C192.9 1296.9 189.9 1294.8 186.8 1292.8 C178 1286.8 169.5 1280.5 161 1274 C159.6 1273 158.3 1272 156.9 1270.9 C153.8 1268.6 150.8 1266.3 147.9 1263.9 C138.3 1256.3 138.3 1256.3 132 1255 C125 1257.7 119.8 1262.3 114 1267 C110.7 1269.3 107.3 1271.7 104 1274 C100 1277 96 1280 92 1283 C90.7 1284 89.4 1284.9 88 1285.9 C55.5 1310 40.2 1338.6 29.2 1376.9 C24.1 1394.4 17 1408 5 1422 C3.4 1424 1.7 1426 0 1428 C-23.1 1446.9 -46.8 1451.3 -76 1450 C-101.3 1446.5 -120.8 1431.8 -136 1412 C-150.8 1390.3 -153.3 1367 -149 1341.6 C-145.8 1326.8 -138.7 1314.4 -129 1303 C-127.9 1301.7 -126.9 1300.3 -125.8 1298.9 C-120.8 1293.7 -115.1 1290 -109 1286 C-107.6 1285 -106.2 1284 -104.7 1283 C-93.1 1275.6 -79.6 1271.9 -66.3 1269 C-33.2 1261 -6.5 1243.8 14 1217 C15.1 1215.5 16.3 1214.1 17.4 1212.6 C19.7 1209.6 22.1 1206.6 24.4 1203.6 C29.8 1196.5 35.4 1189.5 41.2 1182.7 C46 1177 46 1177 49 1172 C47.9 1165.2 45.3 1162.5 40.9 1157.4 C35.9 1151.5 31.5 1145.2 27 1139 C25.6 1137.1 24.2 1135.2 22.8 1133.3 C18.7 1127.6 14.9 1121.8 11 1116 C9.2 1113.5 7.5 1110.9 5.7 1108.4 C0.7 1101.1 -4 1093.6 -8.6 1086 C-11.3 1081.6 -14.1 1077.3 -17 1073 C-21.5 1065.9 -25.2 1058.6 -28.9 1051.1 C-31.4 1046.3 -34.1 1041.7 -36.8 1037 C-40.6 1030 -44 1022.8 -47.4 1015.5 C-49.1 1011.9 -50.8 1008.3 -52.6 1004.8 C-56 998 -59 991 -62 984 C-62.8 982.1 -63.6 980.3 -64.4 978.4 C-69.8 965.1 -74.6 951.6 -78.8 937.9 C-80.1 933.6 -81.6 929.3 -83 925 C-88.4 908.8 -92.9 892.6 -97 876 C-97.7 873.3 -98.4 870.5 -99.1 867.8 C-105.4 842.8 -108.7 817 -111.6 791.4 C-114 770.6 -114 770.6 -118 764 C-126.5 760.6 -135.6 760.1 -144.6 758.9 C-146.6 758.6 -148.6 758.3 -150.6 758 C-187.2 753.1 -223 758.9 -256 776 C-284.3 790 -313.7 799.5 -345.6 792.6 C-369.3 784.3 -388 770.4 -399.7 747.9 C-403.4 739.6 -405.8 730.9 -408 722 C-408.3 720.7 -408.7 719.4 -409 718 C-409.7 718 -410.3 718 -411 718 C-411.1 714.8 -411.1 711.5 -411.2 708.2 C-411.2 706.4 -411.3 704.6 -411.3 702.8 C-411 698 -411 698 -408 694 C-407 690.4 -406.1 686.8 -405.3 683.1 C-401.5 668.3 -395.8 658.1 -385 647 C-384.2 646.2 -384.2 646.2 -380.2 641.9 C-361 623.8 -340.3 618.6 -314.4 618.8 C-294.3 619.4 -276.2 628.1 -258.8 637.5 C-219.6 658.1 -177.8 661.4 -135 652 C-131.7 651.4 -128.3 650.8 -125 650.2 C-118 649 -118 649 -115 648 C-112.7 638.8 -111.4 629.7 -110.3 620.2 C-104.9 575.9 -95.7 529.9 -79.6 488.1 C-77.8 483.5 -76.2 478.9 -74.6 474.3 C-69 458.3 -63 442.5 -56 427 C-55 424.8 -54 422.7 -53 420.5 C-47.5 408.4 -41.8 396.4 -35.5 384.7 C-32.6 379.2 -29.8 373.7 -26.9 368.2 C-22.4 359.4 -17.5 351.2 -12 343 C-10.9 341.2 -9.8 339.5 -8.6 337.6 C-4.8 331.7 -0.8 325.9 3.2 320.1 C5.9 316.2 8.5 312.3 11.1 308.3 C15.7 301.3 20.8 294.6 26 288 C27.7 285.8 29.3 283.7 31 281.5 C33.6 278.1 36.2 274.8 38.7 271.5 C42.4 266.7 45.9 262.1 49 257 C47.7 249.4 44.9 246.9 40 241 C38 238.3 36 235.7 34 233 C30.6 228.5 27.3 224.1 23.8 219.7 C21.1 216.4 18.6 213.1 16.2 209.8 C-7.3 177.6 -34.2 161.4 -73 152.4 C-98.6 146.4 -120.1 134.5 -135.6 112.5 C-149.7 89.5 -155.3 64.9 -149.1 38.1 C-144.6 23.1 -136.5 11.4 -126 0 C-124.9 -1.2 -123.8 -2.5 -122.7 -3.8 C-85.7 -36.4 -35.8 -29.8 0 0 Z " fill="#F5F2EC" transform="translate(411,326)"/>
<path d="M0 0 C7.1 3.5 14.3 6.7 21.5 9.9 C28.5 13.2 35.3 16.8 42.1 20.4 C51 25.1 59.9 29.5 68.9 33.9 C72.6 35.8 76.2 37.6 79.9 39.4 C81.5 40.2 83.1 41 84.7 41.8 C89.3 44.1 93.8 46.6 98.3 49.1 C102.3 51.1 106.3 53.1 110.3 55.1 C110.9 55.4 110.9 55.4 113.8 56.9 C123.4 61.8 133.1 66.3 142.9 70.7 C147.5 72.8 152 75 156.5 77.2 C167.1 82.6 177.9 87.4 188.9 91.8 C201.8 97.4 207.2 104.7 213.8 116.9 C214.7 118.7 215.7 120.5 216.7 122.3 C217.5 123.9 218.4 125.5 219.3 127.1 C230.4 147.5 242.1 167.4 254.3 187.2 C260.8 197.7 267.1 208.4 273.3 219.1 C273.6 219.8 273.6 219.8 275.5 223 C279.5 230 283.4 237 287.3 244.1 C293 254.5 298.8 264.8 304.8 275 C307.9 280.3 310.9 285.6 313.9 290.9 C317.5 297.3 321.2 303.6 324.9 309.8 C330.4 319.7 331.2 325.7 328.3 336.6 C325.4 345.3 321.5 353.1 317.3 361.1 C315.2 365.1 313.2 369 311.1 373 C310.1 374.9 309.1 376.7 308.1 378.7 C306.3 382.2 304.5 385.7 302.8 389.2 C300.2 394.3 297.4 399.4 294.6 404.4 C289.6 413.5 285.1 422.6 280.8 431.9 C277.4 439 273.5 445.8 269.7 452.6 C266.8 458 264.6 463.5 262.3 469.1 C260.7 471.8 259 474.5 257.3 477.1 C252.6 484.9 248.4 492.9 244.3 501 C242.3 505.1 240.2 509.1 238 513.1 C236.1 516.7 234.2 520.3 232.4 524 C230 528.6 227.5 533.1 225 537.6 C220.2 546.3 215.7 555.2 211.3 564.1 C209.9 566.8 208.6 569.5 207.3 572.1 C206.6 573.4 206 574.7 205.3 576.1 C201.6 583.6 197.9 591 193.3 598.1 C192.2 599.9 191 601.6 189.9 603.4 C180.2 613.3 165.6 615.2 152.3 617.2 C150.7 617.5 149.2 617.7 147.6 618 C144.6 618.5 141.5 619 138.5 619.5 C133 620.3 127.5 621.3 122 622.2 C112.9 623.8 103.7 625 94.5 626.1 C84.4 627.4 74.4 628.9 64.4 631.1 C58.2 632.3 52 633.5 45.8 634.6 C37.9 636.1 30 637.5 22.1 639.1 C21.3 639.2 21.3 639.2 17.1 640 C12.5 640.9 7.8 641.8 3.2 642.7 C0.3 643.3 -2.6 643.8 -5.5 644.4 C-6.8 644.6 -8.2 644.9 -9.6 645.2 C-23.7 647.9 -34.9 647.1 -48.7 643.1 C-52.2 642.6 -55.6 642 -59.1 641.6 C-76.7 638.9 -94.2 635.6 -111.8 632.3 C-112.8 632.2 -112.8 632.2 -117.8 631.2 C-121.7 630.5 -125.5 629.8 -129.4 629 C-140 627 -150.4 625.6 -161.2 624.7 C-171.9 623.6 -182.6 621.9 -193.3 620.2 C-195.6 619.9 -197.9 619.6 -200.3 619.2 C-202.5 618.9 -204.7 618.5 -207 618.2 C-209 617.9 -211 617.6 -213 617.3 C-226.2 614.6 -237.4 610.3 -245.3 599.1 C-249.5 592.1 -252.7 584.7 -256 577.2 C-262.3 563.1 -270 549.7 -277.4 536.1 C-286.5 519.6 -295.4 503 -303.7 486.1 C-304.7 484.4 -305.6 482.7 -306.6 480.9 C-309.7 475.1 -312.6 469.3 -315.3 463.3 C-320.1 453.4 -325.1 443.8 -330.4 434.2 C-334.5 426.8 -338.5 419.3 -342.5 411.7 C-343.2 410.4 -343.9 409.1 -344.6 407.8 C-349.4 398.6 -354.1 389.4 -358.7 380.1 C-360.1 377.5 -361.4 374.8 -362.7 372.1 C-363.4 370.8 -364 369.5 -364.7 368.1 C-366.1 365.4 -367.4 362.8 -368.8 360.1 C-385 327.8 -385 327.8 -382.7 318.1 C-380.8 314.1 -378.7 310.1 -376.5 306.1 C-375.3 304.1 -374.2 302 -373 299.9 C-370.3 295.2 -367.6 290.6 -364.7 286.1 C-359.5 277.8 -354.6 269.4 -349.8 260.9 C-348.1 257.8 -346.3 254.8 -344.5 251.7 C-341.7 247.1 -341.7 247.1 -339.5 242.6 C-336.3 236.2 -332.7 230.2 -329.1 224.1 C-327.4 221.3 -325.8 218.4 -324.2 215.5 C-322 211.5 -319.5 207.8 -317 204.1 C-312.5 197.5 -308.6 190.7 -304.8 183.8 C-302.7 180.1 -302.7 180.1 -299.1 175 C-295.8 170.3 -293.4 165.5 -290.9 160.4 C-283.9 146.6 -276.1 133.4 -267.8 120.4 C-266.1 117.8 -264.6 115 -263.2 112.2 C-256.2 100.5 -247.8 95.4 -235.7 90.1 C-234.4 89.5 -233.1 89 -231.7 88.4 C-229 87.2 -226.4 86 -223.7 84.9 C-212 79.7 -200.7 73.6 -189.4 67.6 C-178.5 61.9 -167.5 56.5 -156.4 51.3 C-151.2 48.9 -146.1 46.4 -140.9 43.9 C-129.7 38.6 -118.5 33.4 -107.2 28.2 C-102.8 26.1 -98.5 24 -94.2 21.8 C-88.7 19.1 -88.7 19.1 -84.2 17.4 C-77.4 14.6 -71.1 11.1 -64.6 7.7 C-25.7 -13 -25.7 -13 0 0 Z " fill="#2DD4BF" transform="translate(1046.72265625,709.87890625)"/>
<path d="M0 0 C6.4 3.2 12.7 6.5 18.9 9.9 C23.4 12.2 28 14.3 32.7 16.3 C35.3 17.6 37.9 18.9 40.5 20.2 C41.9 20.9 43.3 21.6 44.7 22.3 C47.9 23.9 51.1 25.6 54.3 27.2 C64.8 32.4 75.4 37.5 86.1 42.3 C95.4 46.4 104.5 50.9 113.7 55.3 C115.1 56 116.6 56.7 118.1 57.4 C130 63.2 137 70 142.9 81.9 C145.3 86.6 147.9 90.9 150.8 95.3 C155.6 102.6 159.9 110.1 164.1 117.8 C168.4 125.4 173 132.9 177.7 140.3 C178.7 142 179.8 143.7 180.9 145.5 C185.9 153.8 191.1 162 196.4 170.1 C209.7 190.6 209.7 190.6 211.7 200.4 C210.1 208.1 206.4 214.4 202.7 221.3 C201.4 223.9 200.1 226.5 198.8 229.1 C187.2 252.2 187.2 252.2 180.7 262.6 C175.1 271.9 170.4 281.6 165.7 291.3 C160.5 301.8 155.1 312 149.5 322.2 C145.1 330.2 140.9 338.3 136.7 346.3 C135 349.4 133.4 352.6 131.7 355.7 C131 357 130.3 358.4 129.6 359.8 C126.6 365.2 124.6 368.4 119.7 372.3 C114.6 373.5 109.7 374.4 104.7 375.3 C101.5 375.9 98.4 376.5 95.3 377 C91.9 377.6 88.6 378.2 85.3 378.8 C83.6 379.1 82 379.4 80.3 379.7 C69.7 381.6 59.2 383.5 48.7 385.3 C34.3 387.8 19.9 390.4 5.7 393.3 C-11.7 396.2 -29 391 -46 387.6 C-66.6 383.5 -87.5 380.4 -108.3 377.3 C-110.5 376.9 -112.7 376.6 -115 376.2 C-117 375.9 -119 375.6 -121 375.3 C-130.1 373.6 -136 371.1 -142.3 364.3 C-145.7 358.8 -148.5 353.1 -151.3 347.3 C-155.9 338 -160.6 329 -166 320.2 C-178.6 299.4 -190.3 277.6 -200.3 255.5 C-202.7 250.6 -205.5 246 -208.3 241.3 C-211.4 235.8 -214.4 230.3 -217.4 224.8 C-219.2 221.5 -221 218.2 -222.9 214.9 C-226.8 208 -229.2 203.3 -228.3 195.3 C-226.2 191.1 -226.2 191.1 -223.3 187 C-222.3 185.5 -221.3 184 -220.2 182.5 C-219.3 181.1 -218.3 179.7 -217.3 178.3 C-215 174.3 -212.6 170.3 -210.3 166.3 C-204.6 156.2 -198.7 146.3 -192.6 136.4 C-189.1 130.8 -185.6 125.2 -182.5 119.2 C-179.2 113 -175.3 107.2 -171.3 101.3 C-168.5 96.8 -165.7 92.2 -163 87.6 C-159.8 82.5 -156.6 77.4 -153.3 72.3 C-152.5 70.9 -151.7 69.5 -150.9 68.1 C-145.4 62.3 -138.6 59.6 -131.3 56.3 C-129.1 55.3 -126.9 54.2 -124.7 53.2 C-120.4 51.3 -116.2 49.4 -112 47.4 C-104.4 43.9 -96.9 40.1 -89.3 36.3 C-86.7 35 -84 33.6 -81.3 32.3 C-80 31.7 -78.7 31 -77.4 30.3 C-65.2 24.3 -65.2 24.3 -61.2 22.2 C-57.7 20.5 -54.2 18.7 -50.8 17 C-40.7 12 -30.5 7.1 -20.3 2.3 C-18.8 1.5 -17.2 0.8 -15.6 -0 C-9.8 -2.3 -5.7 -2.2 0 0 Z " fill="#0B121E" transform="translate(1029.34375,839.6875)"/>
<path d="M0 0 C0.8 0.7 0.8 0.7 5.1 4.2 C23.3 21.9 30.4 44.8 31.2 69.6 C31 92 22.7 111.1 13 131 C6.9 143.8 2 156.1 -1.2 170 C-1.7 172.2 -2.2 174.4 -2.7 176.6 C-8.3 204.4 -10.9 249.2 2 275 C8 279.5 14.7 278.9 22 279.4 C55.9 281.9 88.3 287.8 121.3 296.1 C127.9 297.7 134.5 299.2 141.1 300.6 C163.4 305.7 184.8 313.7 206 322 C209.6 323.4 213.2 324.8 216.8 326.1 C218.5 326.8 220.3 327.4 222.1 328.1 C226.5 329.8 230.9 331.4 235.4 333.1 C243.1 336 250.6 339.4 258 343 C260.3 344.1 262.6 345.2 265 346.3 C267.6 347.6 270.2 348.8 272.8 350.1 C274.1 350.7 275.3 351.2 276.6 351.8 C283.6 355.2 290.3 358.9 297 363 C300.4 365 303.8 366.9 307.2 368.9 C309.1 369.9 310.9 371 312.8 372 C315.8 373.8 318.9 375.5 321.9 377.2 C339.8 387.3 356.7 398.3 372 412 C373.8 413.4 375.5 414.9 377.4 416.4 C379.2 417.9 381.1 419.4 383 421 C384.9 422.5 386.8 424.1 388.7 425.6 C393 430 393 430 393 437 C390.2 440.7 390.2 440.7 386 445 C384.3 446.8 382.7 448.7 381 450.6 C371.8 460.5 362.3 470.2 352 479 C350.7 480.3 349.4 481.6 348 483 C344.1 486.9 340.1 490.4 336 494 C334 495.9 332 497.7 330 499.6 C321.4 507.5 321.4 507.5 316 510 C304.4 506.1 294.7 498.4 284.7 491.5 C280.2 488.5 275.7 485.7 271 483 C268.6 481.6 266.2 480.1 263.9 478.7 C257.2 474.7 250.5 470.9 243.7 467.1 C240.6 465.4 237.7 463.6 234.8 461.8 C229.3 458.6 223.8 456.4 218 454 C213.8 452.1 209.6 450.1 205.5 448.1 C200 445.6 194.5 443.3 189 441 C188.4 440.7 188.4 440.7 185.3 439.5 C181.3 437.8 177.2 436.2 173.2 434.5 C171.8 433.9 170.5 433.4 169.1 432.8 C160.2 429.2 151.2 426 142 423 C140.3 422.4 138.6 421.8 136.9 421.1 C122.4 415.9 108.1 411.3 93.1 408.1 C88.8 407.2 84.6 406.1 80.4 405 C56.7 399.1 31.5 395 7 395 C3 398 3 398 2.4 402.1 C2.3 403.9 2.2 405.7 2.2 407.5 C2.1 408.5 2.1 408.5 1.9 413.5 C1.9 414.6 1.9 414.6 1.7 420.2 C1.7 422.5 1.6 424.7 1.5 427.1 C0.7 455.5 0.9 483.9 1.1 512.3 C1.2 519.4 1.2 526.4 1.2 533.4 C1.2 534.5 1.2 534.5 1.3 539.9 C1.3 541.8 1.3 543.8 1.3 545.9 C1.3 546.7 1.3 546.7 1.3 551.1 C0.1 568.8 -9 582.6 -21.7 594.4 C-35.1 602.4 -48.5 605.3 -64.1 602.9 C-79.7 598.6 -91.1 593 -101 580 C-107.2 568.7 -109.3 560 -109.4 547.2 C-109.4 545.7 -109.4 544.3 -109.5 542.9 C-109.5 538.2 -109.6 533.5 -109.6 528.8 C-109.7 525.5 -109.7 522.1 -109.7 518.8 C-110.1 481.1 -110.2 443.3 -110.1 405.6 C-110.1 395.7 -110.1 385.7 -110.1 375.8 C-110.1 367.9 -110.1 360.1 -110.1 352.3 C-110.1 348.6 -110.1 344.9 -110.1 341.2 C-110.2 270.6 -110.2 270.6 -105 251.3 C-102.1 240.3 -101.4 230 -101.6 218.6 C-101.6 217 -101.5 215.4 -101.5 213.7 C-101.7 189.4 -106.7 165 -117 143 C-148.8 74.4 -148.8 74.4 -136.4 37.1 C-127.8 16.9 -114.1 0.8 -94 -9 C-63.7 -19.9 -26.4 -22.1 0 0 Z " fill="#2DD4BF" transform="translate(1077,55)"/>
<path d="M0 0 C15.9 14.3 26.8 33 31 54 C32.3 82.2 25.1 106.5 6.2 127.8 C-12.3 147 -35.2 155.4 -61.1 160.4 C-75.5 163.3 -88.7 167.8 -101 176 C-102.3 176.8 -103.5 177.7 -104.8 178.5 C-127.2 193.7 -145.4 213.7 -161.4 235.3 C-168.8 245.1 -177 253.7 -186.2 261.7 C-190.9 265.8 -194.9 270.3 -199 275 C-205.6 282.5 -212.6 289.7 -219.7 296.7 C-222 299 -224.2 301.2 -226.5 303.5 C-230 307 -233.5 310.4 -237 313.9 C-240.4 317.3 -243.9 320.7 -247.3 324.1 C-248.3 325.1 -249.4 326.2 -250.4 327.2 C-256.7 333.5 -262.4 340.1 -268 347 C-271.6 350.7 -275.3 354.4 -279 358 C-280 359.2 -281.1 360.4 -282.1 361.6 C-287.8 368 -293.9 373.9 -299.9 379.9 C-306.6 386.5 -312.7 393.3 -318.8 400.4 C-323 405 -323 405 -328 409.1 C-337.1 416.6 -345.6 424.9 -353.4 433.9 C-357.7 438.8 -362.4 443.4 -367.1 448.1 C-376.3 457.2 -376.3 457.2 -380.3 461.9 C-386.7 469.3 -393.4 471 -402.8 472.7 C-418.1 473.8 -433.7 473.5 -447 465 C-461.3 452.5 -469.7 439.6 -471.9 420.4 C-472.2 401.2 -465.2 388.5 -452 374.8 C-446.3 369.1 -440.7 363.5 -434.7 358.2 C-431 355 -431 355 -427.8 351.2 C-423.9 346.9 -419.8 343 -415.5 339.2 C-400.2 325.3 -384.8 311.3 -371.3 295.8 C-365.2 288.8 -358.2 282.8 -351 277 C-348.2 274.2 -345.5 271.5 -342.7 268.7 C-341.6 267.5 -340.4 266.3 -339.2 265.1 C-338 264 -336.9 262.8 -335.7 261.6 C-333.3 259.2 -330.8 256.9 -328.2 254.7 C-321 248.3 -314.4 241.3 -307.6 234.4 C-302.3 229.3 -296.7 224.7 -291 220 C-288.5 217.5 -286.1 215 -283.8 212.4 C-280.5 208.7 -277.2 205.1 -273.4 201.9 C-266.1 195.4 -259.4 188.4 -252.6 181.4 C-247 175.8 -241.6 170.5 -235 166 C-234.2 165.4 -234.2 165.4 -230 162.4 C-224.1 158.4 -218 154.6 -211.8 150.9 C-176.1 127.1 -159.3 96.8 -149 56.2 C-141.1 27.8 -127.6 6.4 -102.2 -9.6 C-67.8 -28.2 -30.6 -24.1 0 0 Z " fill="#2DD4BF" transform="translate(1754,322)"/>
<path d="M0 0 C18.3 21.4 27.9 41.9 35 69 C43.2 95.8 56.1 114.4 78 132 C78.6 132.6 78.6 132.6 81.9 135.4 C86.3 139.3 91 142.9 95.7 146.5 C100.6 150.2 105.3 154.1 110 158 C113.3 160.7 116.7 163.3 120 166 C121.5 167.3 123.1 168.7 124.7 170.1 C129 173 129 173 136 172 C139.2 169.7 139.2 169.7 142.4 166.9 C143.6 165.9 144.7 164.9 145.9 163.8 C146.9 162.9 147.9 162 149 161 C155.3 155.3 161.9 150.2 168.7 145.2 C171.5 143.1 174.3 141 177.1 138.9 C198.7 122.4 222.5 109.4 246 96 C246.6 95.7 246.6 95.7 249.4 94 C253.1 92 256.7 90 260.4 88 C261.1 87.7 261.1 87.7 264.2 86 C266.7 84.7 269.3 83.3 271.9 82.1 C276.3 79.8 280.7 77.5 285 75.2 C302.7 65.9 321.3 58.8 339.9 51.6 C343 50.4 346.1 49.1 349.1 47.9 C356 45.2 363 43.1 370 41 C372.7 40.2 375.4 39.3 378.1 38.5 C379.2 38.1 380.4 37.8 381.6 37.4 C385.4 36.2 389.2 34.9 392.9 33.6 C401.2 30.9 409.5 28.7 417.9 26.6 C419.5 26.2 421.1 25.9 422.7 25.5 C427.5 24.3 432.2 23.1 437 22 C438.3 21.7 438.3 21.7 444.7 20.1 C461.5 16.2 478.4 13.4 495.6 11 C497.8 10.7 500 10.4 502.2 10 C503.3 9.9 503.3 9.9 508.5 9.2 C510.4 8.9 512.2 8.7 514.1 8.4 C519 8 519 8 526 9 C530.7 13.7 530.9 15.9 531.1 22.4 C531.1 24.2 531.1 26 531.1 27.9 C531.1 29.9 531.1 31.9 531.1 34 C531 36.2 531 38.4 531 40.6 C531 42.9 531 45.1 531 47.4 C530.9 52.2 530.9 56.9 530.9 61.7 C530.8 69 530.8 76.3 530.8 83.5 C530.7 88.2 530.7 92.8 530.6 97.4 C530.6 99.6 530.6 101.8 530.6 104 C530.6 106 530.6 108.1 530.6 110.1 C530.5 111.9 530.5 113.7 530.5 115.6 C530 120 530 120 526 125 C521.1 126.3 521.1 126.3 515.1 127.1 C513 127.4 511 127.8 508.8 128.1 C507.8 128.3 507.8 128.3 503 129 C498.3 130 493.7 131 489 132 C484.7 132.8 480.4 133.5 476.1 134.3 C457 137.8 438.3 142.5 420 149 C418.2 149.6 416.4 150.3 414.6 150.9 C412.7 151.6 410.9 152.3 409 153 C405.8 154.2 402.7 155.3 399.5 156.5 C398.7 156.8 398.7 156.8 394.5 158.3 C391 159.6 387.6 160.9 384.1 162.1 C378.3 164.3 372.7 166.6 367 169 C364.7 169.9 362.4 170.8 360 171.8 C346.3 177.2 332.9 183.4 319.7 190.1 C316.1 191.9 312.5 193.7 308.9 195.4 C301.6 199.2 294.8 203.5 288 208 C286.1 209.2 284.3 210.4 282.4 211.6 C276.5 215.3 270.8 219.2 265 223 C263.7 223.8 262.4 224.6 261.1 225.5 C246.6 234.7 231.2 244.8 219 257 C220.2 265.1 222.3 266.5 228.2 271.7 C232.6 275.5 236.7 279.6 240.8 283.7 C242.3 285.3 243.9 286.8 245.5 288.4 C247 290 248.6 291.6 250.2 293.2 C253.4 296.4 256.6 299.6 259.8 302.8 C261.2 304.2 262.5 305.6 264 307.1 C266.6 309.6 269.3 312.1 272 314.5 C276.3 318.3 280.3 322.2 284.4 326.3 C285.9 327.9 287.5 329.5 289.1 331.1 C292.4 334.4 295.6 337.6 298.9 340.9 C300.5 342.5 302 344.1 303.6 345.7 C304.3 346.4 304.3 346.4 307.9 350 C311.8 353.8 315.9 357.4 320 361 C322.9 363.8 325.8 366.6 328.6 369.4 C330.1 370.8 331.5 372.2 333 373.6 C345.9 387.6 349.4 401.3 349.3 419.8 C348.9 425.9 347.7 430.5 345 436 C344.3 437.5 343.6 438.9 342.9 440.4 C333.1 455.7 320.6 464.5 303 469 C288.6 471.1 274.9 470.9 262.2 463 C253.3 455.8 245.4 447.6 237.3 439.4 C234 436.1 230.8 432.8 227.5 429.5 C226.1 428 224.6 426.6 223.1 425.1 C219.2 421.2 215.2 417.6 211 414 C208 411 205 408 202 405 C200.8 403.9 199.5 402.8 198.2 401.7 C194 398 190 394.1 186 390.2 C184.6 388.7 183.1 387.2 181.6 385.7 C180 384.2 178.5 382.6 176.9 381.1 C175.4 379.5 173.9 378 172.3 376.4 C171.6 375.7 171.6 375.7 167.8 372 C167.2 371.3 167.2 371.3 163.8 367.9 C161.2 365.3 158.7 362.6 156.3 359.8 C152.2 355.1 147.7 351.1 143 347 C141.7 345.7 140.4 344.4 139 343 C133 343 133 343 129.5 346 C112.8 365 99.2 386.9 86.5 408.7 C84 412.9 81.4 417.1 78.8 421.2 C74.6 428 70.7 434.9 67 442 C66.2 443.5 65.4 444.9 64.6 446.5 C55.9 462.8 49 479.4 42.4 496.7 C40.4 501.9 38.3 507.1 36.2 512.4 C26.6 537.3 19.7 564.3 14.8 590.6 C14 595.2 13 599.7 11.9 604.3 C8.8 619 6.4 634 7 649 C14.1 650.1 21.1 650.1 28.3 650.1 C29.6 650.1 30.9 650.1 32.3 650.1 C35.1 650 38 650 40.8 650 C45.3 650 49.9 650 54.4 650 C67.2 649.9 80.1 649.9 92.9 649.8 C100.8 649.8 108.7 649.8 116.5 649.8 C119.5 649.7 122.5 649.7 125.5 649.7 C129.7 649.7 133.9 649.7 138.1 649.7 C139.3 649.7 139.3 649.7 145.3 649.6 C159.2 650.4 170.8 654.2 181.8 663 C193.7 677.7 200.1 693.3 199.5 712.4 C197.8 728.5 189.9 740.4 178.4 751.4 C166.8 760.8 155.6 763.2 141 763.3 C139.5 763.3 138.1 763.3 136.7 763.3 C133.6 763.3 130.6 763.3 127.5 763.3 C122.7 763.3 117.9 763.4 113 763.4 C101.1 763.4 89.1 763.5 77.1 763.5 C66.9 763.5 56.8 763.6 46.7 763.6 C41.9 763.7 37.1 763.7 32.4 763.7 C29.5 763.7 26.6 763.7 23.7 763.7 C21.1 763.7 18.6 763.7 15.9 763.7 C10 764 10 764 6 766 C5.6 776.1 7 785.8 8.5 795.8 C8.8 797.6 9 799.4 9.3 801.3 C15.8 843.7 26.5 885 42.4 925 C43.9 928.7 45.2 932.5 46.6 936.3 C49 943.1 51.9 949.5 55 956 C55.3 956.8 55.3 956.8 56.8 960.6 C59.5 967.2 62.8 973.4 66.1 979.6 C70.3 987.4 74.2 995.2 78.2 1003 C80.6 1007.3 83.1 1011.1 86 1015 C86.6 1016.3 87.2 1017.5 87.9 1018.8 C90.5 1023.9 93.7 1028.3 97 1033 C97.6 1034 97.6 1034 100.9 1038.9 C105.1 1045.1 109.5 1051 114 1057 C115.5 1059 117.1 1061.1 118.6 1063.2 C129.1 1077.1 129.1 1077.1 134 1082 C141.8 1080.7 143.9 1077.5 149.4 1071.9 C155.1 1066 160.8 1060.3 167 1055 C172.6 1049.5 178 1044 183 1038 C186.1 1034.9 189.2 1032 192.4 1029.1 C199.4 1022.7 206 1016.1 212.6 1009.4 C219.9 1002 227.1 994.8 235 988 C238 984.7 241 981.4 244 978 C256.7 965.3 267.9 958.6 285.9 957.6 C306.2 958 321.8 964.8 336 979 C346.3 990.5 349.3 1004.9 349.2 1020 C348.2 1039.1 334.3 1052.4 321 1064.6 C319.4 1066 317.7 1067.5 316 1069 C311.3 1073.6 306.6 1078.3 302 1083 C299.1 1085.9 296.1 1088.9 293.1 1091.8 C290.7 1094.3 288.4 1096.8 286.1 1099.4 C280.3 1105.9 274.1 1112.1 267.9 1118.2 C267.2 1118.9 267.2 1118.9 264.1 1122.1 C263.4 1122.7 263.4 1122.7 260.4 1125.8 C259.3 1126.9 258.2 1128 257 1129.1 C254 1132 254 1132 249 1136 C247.4 1137.7 245.7 1139.3 244 1141 C242.1 1142.8 240.2 1144.7 238.3 1146.6 C236.1 1148.8 233.9 1150.9 231.8 1153.1 C230.6 1154.2 229.5 1155.2 228.4 1156.4 C220.1 1164.5 220.1 1164.5 219 1169 C223.6 1174.6 227.1 1177.1 233 1181 C234.5 1182.2 236 1183.4 237.6 1184.7 C249.4 1194.1 262.2 1202.1 275 1210 C276.9 1211.2 278.8 1212.4 280.7 1213.6 C298.7 1225 317.1 1235.2 336 1245 C337.3 1245.7 338.7 1246.4 340 1247.1 C352 1253.3 364.5 1258.1 377 1263 C378.5 1263.6 380.1 1264.2 381.7 1264.9 C394.9 1270.2 408.4 1274.6 422 1279 C424.1 1279.7 426.3 1280.4 428.5 1281.1 C466.8 1293.7 511.3 1306.1 552 1304 C556.3 1299.7 555.4 1295.9 555.4 1290.1 C555.4 1289.4 555.4 1289.4 555.4 1285.5 C555.4 1283.9 555.4 1282.2 555.4 1280.6 C555.4 1277.1 555.4 1273.5 555.4 1270 C555.4 1264.5 555.4 1258.9 555.4 1253.3 C555.5 1241.5 555.5 1229.6 555.5 1217.8 C555.5 1204.1 555.5 1190.4 555.6 1176.7 C555.6 1171.2 555.6 1165.7 555.6 1160.2 C555.6 1156.9 555.6 1153.5 555.6 1150.1 C555.6 1148.6 555.6 1147.1 555.6 1145.5 C555.7 1127.2 559.2 1114.8 571.6 1100.8 C586.4 1087.7 601.5 1084.1 621 1085 C636.2 1087.5 648.1 1096.2 658.2 1107.6 C666.7 1120.9 668.1 1132.7 668.2 1148.1 C668.2 1148.9 668.2 1148.9 668.2 1153 C668.2 1156.6 668.2 1160.1 668.2 1163.7 C668.2 1169.3 668.2 1174.9 668.3 1180.5 C668.3 1196.4 668.4 1212.4 668.4 1228.3 C668.4 1238.1 668.5 1247.8 668.5 1257.6 C668.5 1261.3 668.5 1265 668.5 1268.8 C668.5 1273.9 668.6 1279.1 668.6 1284.3 C668.6 1285.9 668.6 1287.4 668.6 1289 C668.7 1299.7 668.7 1299.7 672 1303 C678.7 1303.2 685.3 1302.5 692 1302 C692.8 1301.9 692.8 1301.9 697 1301.7 C709.7 1300.6 721.7 1298 734 1295 C737.6 1294.2 741.1 1293.4 744.7 1292.6 C762 1288.7 779.1 1284.3 796 1279 C798.2 1278.3 800.3 1277.7 802.5 1277 C867.9 1256.7 927.2 1225.4 982.5 1185.2 C986.7 1182.2 990.8 1179.3 995 1176.4 C1001 1172 1001 1172 1003 1169 C1001.8 1163.1 1000.2 1161.7 995.9 1157.6 C994.8 1156.5 993.7 1155.5 992.6 1154.4 C990.3 1152.2 987.9 1150.1 985.5 1148 C980 1143.1 974.9 1138 969.8 1132.8 C968.7 1131.8 967.7 1130.7 966.6 1129.6 C962.1 1125.1 957.6 1120.6 953.1 1116.1 C949.8 1112.8 946.5 1109.5 943.2 1106.2 C942.2 1105.1 941.2 1104.1 940.2 1103.1 C934.9 1097.8 929.6 1092.8 924 1088 C920.6 1084.7 917.3 1081.4 914 1078 C912.3 1076.3 910.7 1074.7 909 1073 C907.6 1071.6 906.2 1070.1 904.7 1068.6 C901.9 1065.8 899 1063.1 896 1060.5 C880.5 1046.9 873.2 1034.4 871.5 1013.9 C873 996.1 879.2 983 893 971 C907.4 960.7 924.3 954.8 942.2 957.7 C962.9 962.3 976.6 977.2 990 993 C992.8 995.8 995.5 998.5 998.5 1001 C1009.1 1010.1 1018.7 1020.7 1028.6 1030.6 C1031.1 1033.2 1033.7 1035.8 1036.3 1038.4 C1037.6 1039.7 1038.9 1041 1040.2 1042.3 C1048.2 1050.3 1056.3 1057.8 1065 1065 C1068.5 1068.5 1072 1072.2 1075.4 1075.8 C1081 1081 1081 1081 1087 1081 C1092.1 1075.9 1096.5 1070.6 1101 1065 C1102.3 1063.5 1103.6 1061.9 1104.9 1060.3 C1112.6 1050.3 1119.6 1039.9 1126 1029 C1127.3 1027 1128.5 1025 1129.8 1022.9 C1140.5 1005.4 1150 987.2 1159.1 968.9 C1160.4 966.3 1161.7 963.6 1163 961 C1189.2 909.5 1202.7 851.2 1212 794.4 C1212.2 793.5 1212.2 793.5 1213 788.7 C1213.2 786.9 1213.5 785.1 1213.8 783.2 C1213.9 782.5 1213.9 782.5 1214.6 778.4 C1215 774.1 1214.7 770.3 1214 766 C1207.8 763.5 1203 763.8 1196.3 763.8 C1195 763.8 1193.7 763.8 1192.4 763.8 C1189.6 763.8 1186.8 763.9 1184 763.9 C1179.5 763.9 1175.1 763.9 1170.6 763.9 C1158 764 1145.3 764 1132.7 764.1 C1124.9 764.2 1117.2 764.2 1109.5 764.2 C1106.5 764.2 1103.6 764.2 1100.6 764.3 C1058.5 764.6 1058.5 764.6 1039.8 749.9 C1026.1 735.9 1021.6 720.3 1021.8 701.3 C1022.5 686.1 1029.9 671.3 1041 661 C1053.7 652.2 1062.8 649.8 1078.4 649.7 C1079.8 649.7 1081.2 649.7 1082.7 649.7 C1085.8 649.7 1088.9 649.7 1092 649.7 C1096.9 649.7 1101.8 649.6 1106.7 649.6 C1118.8 649.6 1131 649.5 1143.1 649.5 C1153.4 649.5 1163.7 649.4 1174 649.4 C1178.8 649.3 1183.6 649.3 1188.5 649.3 C1191.4 649.3 1194.3 649.3 1197.3 649.3 C1199.9 649.3 1202.5 649.3 1205.1 649.3 C1211 649 1211 649 1214 647 C1215.5 622.7 1208.2 596.4 1202 573 C1201.4 570.8 1200.8 568.6 1200.2 566.4 C1199.9 565.1 1199.6 563.9 1199.2 562.6 C1198.3 559 1197.3 555.4 1196.4 551.8 C1193.2 540 1190 528.5 1186 517 C1185.2 514.7 1184.4 512.4 1183.6 510 C1178.8 497.1 1173.5 484.5 1167.6 472.1 C1167 470.7 1166.3 469.2 1165.6 467.8 C1156.8 449.2 1147.9 430.5 1137 413 C1136.2 411.8 1135.5 410.5 1134.7 409.3 C1129.6 401.1 1124.4 393 1119 385 C1117.9 383.4 1116.9 381.9 1115.8 380.2 C1115.2 379.4 1115.2 379.4 1112.3 375.1 C1111.8 374.3 1111.8 374.3 1109.1 370.3 C1106 366 1106 366 1101 360 C1100 353 1100 353 1104 347 C1107.3 344 1110.7 341 1114 338 C1122 330.2 1129.7 322.4 1137 314 C1139.7 311.3 1142.3 308.7 1145 306 C1146.3 304.4 1147.6 302.7 1149 301 C1150.7 299.7 1152.3 298.4 1154 297 C1156.9 294.1 1159.7 291.2 1162.6 288.3 C1163.8 287 1165.1 285.7 1166.4 284.4 C1167.7 283.1 1169 281.8 1170.3 280.4 C1174 277 1174 277 1180 274 C1187.6 275.5 1189.6 280.8 1194 287 C1194.6 287.8 1194.6 287.8 1197.6 291.6 C1203.9 299.8 1209.5 308.3 1215 317 C1216.3 319 1217.6 321 1219 323 C1222.7 328.6 1226.4 334.3 1230 340 C1230.8 341.2 1231.6 342.4 1232.4 343.6 C1240.6 355.9 1247.3 368.8 1254 382 C1255.7 385.3 1257.5 388.5 1259.2 391.8 C1267.3 407.2 1274.5 422.8 1281 439 C1281.8 440.9 1282.6 442.8 1283.4 444.8 C1302 489.6 1302 489.6 1307.7 513 C1309.3 519.2 1311.1 525.4 1312.8 531.6 C1322.7 567.6 1330.5 603.6 1333.4 640.9 C1334 645 1334 645 1337 650 C1343.1 653 1351.4 653 1358 654 C1359.8 654.3 1361.6 654.6 1363.4 654.9 C1375.4 656.6 1387.1 657.3 1399.1 657.4 C1400.5 657.4 1401.9 657.4 1403.3 657.4 C1412.2 657.4 1420.3 656.1 1429 654 C1430 653.8 1430 653.8 1434.9 652.6 C1445.6 649.9 1455.2 647 1465 642 C1468.9 640.1 1472.9 638.2 1476.8 636.4 C1487.3 631.4 1487.3 631.4 1492.2 628.9 C1496.2 626.9 1500.1 625.4 1504.3 623.9 C1505.7 623.4 1507.1 622.9 1508.5 622.4 C1518.3 619.4 1527.6 618.7 1537.9 618.7 C1540.2 618.7 1542.6 618.7 1545 618.6 C1560.4 619.4 1576.1 623.9 1588 634 C1589.8 635.5 1591.7 636.9 1593.6 638.4 C1611.8 653.7 1622.6 672.3 1626 696 C1627.6 726.9 1619.5 749.3 1599.2 772.3 C1577.6 791.3 1553 795.7 1525 794 C1505.8 791.2 1488.5 783.1 1471.1 774.9 C1428.6 755.2 1385.6 753.7 1340 763 C1335 766.7 1335.1 768 1334 774 C1333.5 777.4 1333.1 780.8 1332.6 784.3 C1327 827.1 1320 869.7 1306.6 910.9 C1305.2 915.3 1304 919.7 1303 924.1 C1297.9 945.5 1288.7 965.9 1280 986 C1278.8 989 1277.5 991.9 1276.3 994.9 C1268.7 1013 1260.4 1030.7 1251 1048 C1249.9 1050 1248.9 1052 1247.8 1054 C1246.8 1055.7 1245.9 1057.3 1245 1059 C1244 1060.9 1243 1062.8 1241.9 1064.7 C1239.4 1069.2 1236.8 1073.6 1234 1078 C1232.7 1080.1 1231.4 1082.2 1230.1 1084.3 C1223.3 1095.4 1216.3 1106.2 1209 1117 C1208 1118.5 1206.9 1120 1205.9 1121.6 C1197.1 1134.5 1187.9 1147 1178.4 1159.3 C1176.2 1162.2 1174 1165 1172 1168 C1173.2 1176.1 1174.3 1176.7 1180 1182 C1184.8 1187.9 1189.4 1193.9 1194 1200 C1196.3 1203 1198.7 1206 1201 1209 C1201.8 1210.1 1202.6 1211.1 1203.4 1212.2 C1228.6 1244.9 1258.7 1262.7 1298.8 1272.2 C1325.9 1279 1348.2 1295.8 1362.7 1319.6 C1366.5 1326.8 1368.8 1334.2 1371 1342 C1371.6 1344.1 1372.2 1346.3 1372.9 1348.5 C1377.1 1372.8 1370.7 1394.8 1357 1415 C1341.3 1433.9 1322.4 1446.7 1297.8 1450.7 C1272 1452.8 1247.7 1446.8 1227.5 1430.1 C1207.1 1411.6 1197.5 1391.5 1191.2 1364.9 C1188.3 1352.9 1185.1 1341.4 1178 1331 C1176.7 1329 1175.4 1327 1174 1325 C1162.6 1308.6 1149.1 1295.8 1133 1284 C1131.8 1283.1 1130.6 1282.2 1129.3 1281.3 C1126.7 1279.4 1124.2 1277.5 1121.6 1275.6 C1118.6 1273.4 1115.5 1271.2 1112.5 1268.9 C1108.1 1265.8 1103.7 1262.6 1099.2 1259.6 C1098 1258.7 1096.7 1257.9 1095.5 1257 C1092 1255 1092 1255 1086 1254 C1079.4 1257.8 1073.6 1262.6 1067.6 1267.2 C1062.4 1271.2 1057.1 1275.2 1051.8 1279.1 C1048.5 1281.6 1045.2 1284.1 1041.9 1286.6 C1015.2 1306.5 987 1325.4 957 1340 C954.5 1341.3 951.9 1342.5 949.4 1343.8 C948 1344.5 946.6 1345.2 945.2 1345.9 C942.4 1347.3 939.6 1348.7 936.8 1350.1 C929 1354.1 921.1 1357.7 913 1361 C911.8 1361.6 910.6 1362.2 909.3 1362.9 C904.4 1365.3 899.3 1367.4 894.2 1369.5 C892.3 1370.3 890.5 1371 888.6 1371.8 C883.1 1374 877.6 1376 872 1378 C868.5 1379.3 865 1380.7 861.5 1382 C824.7 1396 824.7 1396 805.9 1399.9 C800 1401.2 794.2 1402.8 788.4 1404.4 C776 1407.8 763.6 1410.6 751 1413 C748.4 1413.5 745.8 1414 743.2 1414.5 C724.9 1417.9 706.7 1420.1 688.2 1421.7 C686.6 1421.9 684.9 1422 683.2 1422.1 C682.5 1422.2 682.5 1422.2 678.8 1422.5 C675 1423 675 1423 670 1425 C667.5 1431.1 666.9 1436.9 665.9 1443.5 C665.8 1444.7 665.8 1444.7 664.9 1450.8 C662.1 1473 661.8 1494.4 666.2 1516.4 C666.5 1517.9 666.8 1519.4 667.1 1520.9 C668.9 1529.4 671.4 1537 675 1545 C675.7 1547.1 676.4 1549.1 677.1 1551.2 C679.4 1557.9 682.4 1564.2 685.4 1570.6 C697.2 1596 704 1620.8 694.5 1648.2 C684.7 1671.4 670.2 1687.4 647 1698.4 C623 1707.8 597.9 1707.4 574 1698 C551.3 1686.7 536.6 1668.6 528 1645 C519.9 1615.9 526.9 1590.6 540.3 1564.6 C557.5 1530.8 564.3 1497.4 560.6 1459.8 C559.8 1451.8 559.2 1443.8 558.6 1435.8 C558 1431 558 1431 556 1425 C547.5 1423.4 539.1 1422.5 530.4 1421.9 C499.2 1419.3 468.4 1413.8 438 1406 C435.3 1405.4 432.5 1404.8 429.8 1404.2 C383.4 1394.1 337.3 1377.7 295 1356 C292.3 1354.7 289.7 1353.3 287 1352 C286.3 1351.7 286.3 1351.7 283 1350 C280.4 1348.7 277.9 1347.5 275.4 1346.2 C259.2 1338.3 242.9 1330.2 228 1320 C224.7 1318 221.3 1316 218 1314 C210.4 1309.3 203.2 1304.3 196 1299 C192.9 1296.9 189.9 1294.8 186.8 1292.8 C178 1286.8 169.5 1280.5 161 1274 C159.6 1273 158.3 1272 156.9 1270.9 C153.8 1268.6 150.8 1266.3 147.9 1263.9 C138.3 1256.3 138.3 1256.3 132 1255 C125 1257.7 119.8 1262.3 114 1267 C110.7 1269.3 107.3 1271.7 104 1274 C100 1277 96 1280 92 1283 C90.7 1284 89.4 1284.9 88 1285.9 C55.5 1310 40.2 1338.6 29.2 1376.9 C24.1 1394.4 17 1408 5 1422 C3.4 1424 1.7 1426 0 1428 C-23.1 1446.9 -46.8 1451.3 -76 1450 C-101.3 1446.5 -120.8 1431.8 -136 1412 C-150.8 1390.3 -153.3 1367 -149 1341.6 C-145.8 1326.8 -138.7 1314.4 -129 1303 C-127.9 1301.7 -126.9 1300.3 -125.8 1298.9 C-120.8 1293.7 -115.1 1290 -109 1286 C-107.6 1285 -106.2 1284 -104.7 1283 C-93.1 1275.6 -79.6 1271.9 -66.3 1269 C-33.2 1261 -6.5 1243.8 14 1217 C15.1 1215.5 16.3 1214.1 17.4 1212.6 C19.7 1209.6 22.1 1206.6 24.4 1203.6 C29.8 1196.5 35.4 1189.5 41.2 1182.7 C46 1177 46 1177 49 1172 C47.9 1165.2 45.3 1162.5 40.9 1157.4 C35.9 1151.5 31.5 1145.2 27 1139 C25.6 1137.1 24.2 1135.2 22.8 1133.3 C18.7 1127.6 14.9 1121.8 11 1116 C9.2 1113.5 7.5 1110.9 5.7 1108.4 C0.7 1101.1 -4 1093.6 -8.6 1086 C-11.3 1081.6 -14.1 1077.3 -17 1073 C-21.5 1065.9 -25.2 1058.6 -28.9 1051.1 C-31.4 1046.3 -34.1 1041.7 -36.8 1037 C-40.6 1030 -44 1022.8 -47.4 1015.5 C-49.1 1011.9 -50.8 1008.3 -52.6 1004.8 C-56 998 -59 991 -62 984 C-62.8 982.1 -63.6 980.3 -64.4 978.4 C-69.8 965.1 -74.6 951.6 -78.8 937.9 C-80.1 933.6 -81.6 929.3 -83 925 C-88.4 908.8 -92.9 892.6 -97 876 C-97.7 873.3 -98.4 870.5 -99.1 867.8 C-105.4 842.8 -108.7 817 -111.6 791.4 C-114 770.6 -114 770.6 -118 764 C-126.5 760.6 -135.6 760.1 -144.6 758.9 C-146.6 758.6 -148.6 758.3 -150.6 758 C-187.2 753.1 -223 758.9 -256 776 C-284.3 790 -313.7 799.5 -345.6 792.6 C-369.3 784.3 -388 770.4 -399.7 747.9 C-403.4 739.6 -405.8 730.9 -408 722 C-408.3 720.7 -408.7 719.4 -409 718 C-409.7 718 -410.3 718 -411 718 C-411.1 714.8 -411.1 711.5 -411.2 708.2 C-411.2 706.4 -411.3 704.6 -411.3 702.8 C-411 698 -411 698 -408 694 C-407 690.4 -406.1 686.8 -405.3 683.1 C-401.5 668.3 -395.8 658.1 -385 647 C-384.2 646.2 -384.2 646.2 -380.2 641.9 C-361 623.8 -340.3 618.6 -314.4 618.8 C-294.3 619.4 -276.2 628.1 -258.8 637.5 C-219.6 658.1 -177.8 661.4 -135 652 C-131.7 651.4 -128.3 650.8 -125 650.2 C-118 649 -118 649 -115 648 C-112.7 638.8 -111.4 629.7 -110.3 620.2 C-104.9 575.9 -95.7 529.9 -79.6 488.1 C-77.8 483.5 -76.2 478.9 -74.6 474.3 C-69 458.3 -63 442.5 -56 427 C-55 424.8 -54 422.7 -53 420.5 C-47.5 408.4 -41.8 396.4 -35.5 384.7 C-32.6 379.2 -29.8 373.7 -26.9 368.2 C-22.4 359.4 -17.5 351.2 -12 343 C-10.9 341.2 -9.8 339.5 -8.6 337.6 C-4.8 331.7 -0.8 325.9 3.2 320.1 C5.9 316.2 8.5 312.3 11.1 308.3 C15.7 301.3 20.8 294.6 26 288 C27.7 285.8 29.3 283.7 31 281.5 C33.6 278.1 36.2 274.8 38.7 271.5 C42.4 266.7 45.9 262.1 49 257 C47.7 249.4 44.9 246.9 40 241 C38 238.3 36 235.7 34 233 C30.6 228.5 27.3 224.1 23.8 219.7 C21.1 216.4 18.6 213.1 16.2 209.8 C-7.3 177.6 -34.2 161.4 -73 152.4 C-98.6 146.4 -120.1 134.5 -135.6 112.5 C-149.7 89.5 -155.3 64.9 -149.1 38.1 C-144.6 23.1 -136.5 11.4 -126 0 C-124.9 -1.2 -123.8 -2.5 -122.7 -3.8 C-85.7 -36.4 -35.8 -29.8 0 0 Z M-127.1 4.8 C-145.1 24.8 -149 45.9 -148 72 C-146.6 93.7 -134.3 112.4 -119.1 127.3 C-104.4 140.2 -87.1 146.7 -68.3 150.9 C-29.1 159.7 -3 178.3 20.4 210.9 C25.4 217.8 30.5 224.4 36 231 C39.4 235.3 42.7 239.6 46 244 C47.2 245.6 48.4 247.2 49.7 248.9 C52 253 52 253 51 260 C48.1 263.8 45.1 267.4 42 271 C38.6 275.3 35.3 279.6 32 284 C31.4 284.8 31.4 284.8 28.4 288.7 C20.9 298.6 13.8 308.6 7 319 C4.6 322.5 2.3 326.1 -0.1 329.6 C-11 345.9 -20.7 362.8 -30 380 C-30.3 380.6 -30.3 380.6 -31.9 383.4 C-36.9 392.8 -41.5 402.3 -46 412 C-47.4 415 -48.8 418 -50.2 421 C-57.8 437 -64.1 453.3 -70 470 C-71 472.7 -72 475.4 -73.1 478.1 C-75.5 484.7 -77.8 491.3 -80 498 C-80.7 499.8 -81.3 501.5 -82 503.3 C-84.4 510.1 -86.2 517 -88 524 C-88.4 525.5 -88.8 527 -89.3 528.6 C-91.6 537.3 -93.7 545.9 -95.2 554.8 C-96 558.9 -96.9 562.8 -97.9 566.8 C-100.1 576.1 -101.9 585.5 -103.6 594.9 C-103.7 595.8 -103.7 595.8 -104.5 600.1 C-106.6 612 -108.2 623.8 -109.3 635.9 C-110 640.8 -110.7 644.6 -113 649 C-120 652.5 -126.8 653.7 -134.4 655.1 C-135.1 655.2 -135.1 655.2 -138.6 655.8 C-176.6 662.8 -213.6 661.8 -249 645 C-250.9 644.1 -252.8 643.2 -254.8 642.2 C-256.8 641.3 -258.7 640.4 -260.7 639.4 C-261.7 639 -261.7 639 -266.6 636.6 C-269.7 635.1 -272.8 633.6 -275.9 631.9 C-281.3 629.4 -286.8 627.6 -292.4 625.8 C-294.6 625.1 -296.7 624.4 -298.9 623.7 C-319.6 617.9 -340.7 621.2 -360 630 C-365 632.9 -369.5 636.3 -374 640 C-374.6 640.5 -374.6 640.5 -377.4 642.9 C-396.3 659.4 -403.3 678.8 -405.4 703.5 C-406 727 -399.9 748.5 -384 766 C-382.8 767.4 -381.5 768.8 -380.2 770.2 C-363.8 784.9 -344.5 791.4 -322.9 791.3 C-321.5 791.3 -320 791.3 -318.6 791.4 C-296.4 791.4 -277.6 783.1 -257.8 773.9 C-220.5 756.6 -186.1 750.4 -145.1 756.3 C-144 756.5 -144 756.5 -138.4 757.2 C-137.3 757.4 -137.3 757.4 -131.9 758.2 C-130.9 758.3 -130.9 758.3 -126 759 C-121 760 -121 760 -115 763 C-111.3 768.8 -110.3 774.1 -109.6 780.9 C-109.4 782.8 -109.2 784.7 -109 786.6 C-108.8 788.6 -108.6 790.5 -108.4 792.6 C-107.2 805.2 -105.6 817.6 -103 830 C-102.4 834.1 -101.8 838.3 -101.2 842.4 C-99.5 853.3 -97.2 863.9 -94.4 874.5 C-93.2 879.3 -92 884.1 -90.9 889 C-87.9 901.8 -83.6 914.2 -79.4 926.7 C-78.2 930.5 -77 934.4 -75.9 938.2 C-64.5 978 -45.6 1015.8 -25.3 1051.8 C-23.7 1054.7 -22.1 1057.8 -20.6 1060.8 C-10.4 1081 2.7 1099.8 15.7 1118.3 C18.3 1122 20.9 1125.8 23.4 1129.7 C26.8 1134.7 30.3 1139.3 34 1144 C35.5 1146 36.9 1147.9 38.4 1149.9 C41.4 1153.8 44.4 1157.6 47.5 1161.4 C51 1166 51 1166 52 1172 C49.4 1177.9 45.5 1181.6 41 1186 C37.6 1190.2 34.3 1194.5 31.1 1198.9 C30.6 1199.6 30.6 1199.6 27.9 1203.1 C27 1204.4 26 1205.8 25 1207.1 C22.1 1210.9 19.1 1214.4 16 1218 C14.4 1220.1 12.8 1222.2 11.2 1224.3 C-8.5 1249.9 -39.2 1266.5 -70.8 1272.9 C-84.4 1275.7 -97.9 1280.5 -109 1289 C-111 1290.5 -113 1291.9 -115.1 1293.4 C-133.9 1308 -144.5 1326.8 -147.6 1350.4 C-149.8 1373.9 -145.6 1394.5 -131.5 1413.8 C-130.3 1415.2 -129.2 1416.6 -128 1418 C-127.5 1418.7 -127.5 1418.7 -124.8 1422.1 C-107.7 1440 -85 1447.1 -60.9 1448.2 C-35.5 1447.2 -13.6 1438 4.2 1419.7 C15.5 1405.8 22 1391.1 27 1374.2 C37.6 1339.4 52 1309 82 1287 C84.2 1285.3 86.5 1283.5 88.7 1281.8 C94 1277.7 99.5 1273.8 105 1270 C111.2 1265.6 117.5 1261.2 123.6 1256.5 C127 1254 127 1254 132 1252 C138.7 1253.1 140.6 1254.7 145.6 1259 C147 1260.2 148.5 1261.4 149.9 1262.6 C151.3 1263.7 152.6 1264.8 154 1266 C163.4 1273.3 173.2 1280.1 183.1 1286.9 C188.4 1290.6 193.8 1294.4 199.2 1298.2 C227.5 1318 257.1 1334.5 288.2 1349.2 C293.5 1351.8 298.8 1354.4 304 1357 C315.8 1362.8 327.8 1368.1 340 1373 C342.9 1374.2 345.9 1375.5 348.8 1376.7 C359.7 1381.2 370.8 1384.6 382 1388 C383.7 1388.6 385.4 1389.1 387.1 1389.7 C397 1392.9 406.9 1395.8 417.1 1398.1 C420.9 1399 424.8 1400 428.6 1401.1 C434.7 1402.7 440.7 1404 446.9 1405.2 C451.5 1406.1 456.1 1407.2 460.6 1408.4 C471.6 1411 482.5 1412.9 493.6 1414.6 C495.6 1414.9 497.5 1415.2 499.5 1415.5 C513.4 1417.6 527.3 1419.1 541.3 1420.1 C547.3 1420.5 552.3 1421.1 558 1423 C563.9 1439.1 564.3 1458 565 1475 C565.1 1476.4 565.1 1477.7 565.2 1479.1 C565.8 1500.9 561.7 1525.4 552 1545 C551.2 1546.8 550.5 1548.6 549.7 1550.5 C546 1559.3 542 1567.9 537.9 1576.6 C531.3 1591.1 527.7 1601.9 527.8 1617.9 C527.7 1619.1 527.7 1619.1 527.7 1625.2 C528.7 1648.7 540.1 1668.3 557 1684 C568.6 1693 580.5 1698.5 595 1701 C596.3 1701.2 597.6 1701.5 598.9 1701.7 C623.4 1703.6 645.9 1698.8 665.6 1683.7 C682.4 1669 692.3 1653.2 696 1631 C697.5 1609 692 1590.4 682.6 1570.6 C679.5 1564.2 676.7 1557.6 674 1551 C673.1 1548.7 672.1 1546.5 671.1 1544.1 C656.9 1506.2 657.9 1467.2 666 1428 C669 1422 669 1422 672.2 1420.7 C679 1419.7 685.8 1419.2 692.6 1418.6 C704.2 1417.7 715.5 1416.2 726.9 1414 C732.1 1413 737.3 1412.2 742.6 1411.6 C753.2 1410.1 763.6 1407.6 774 1405 C777 1404.3 780 1403.6 783 1402.9 C787.9 1401.8 792.6 1400.5 797.4 1399 C802.6 1397.4 807.6 1396.2 812.9 1395.1 C825 1392.5 836.4 1388.3 848 1384 C849.5 1383.5 851 1382.9 852.6 1382.3 C860.7 1379.3 868.9 1376.3 877 1373 C878.6 1372.4 880.2 1371.8 881.9 1371.2 C893.5 1367 905 1362.7 916 1357 C920.7 1354.6 925.4 1352.3 930.2 1350.1 C936.6 1347.3 942.8 1344.1 949 1341 C949.6 1340.7 949.6 1340.7 952.9 1339.1 C981.4 1324.6 1008.3 1307.9 1034 1289 C1035.9 1287.7 1037.7 1286.3 1039.6 1284.9 C1042.9 1282.5 1046.2 1280 1049.5 1277.5 C1052.7 1275 1055.9 1272.6 1059.2 1270.2 C1064.8 1266.1 1070.2 1261.9 1075.6 1257.5 C1079 1255 1082.2 1252.8 1086 1251 C1097.2 1252.9 1106 1261.4 1115 1268 C1116.6 1269.1 1118.3 1270.3 1119.9 1271.4 C1144.3 1288.6 1165.3 1305.5 1181 1331 C1181.8 1332.2 1182.6 1333.4 1183.4 1334.6 C1186.5 1339.8 1188.2 1345 1190 1350.8 C1190.7 1353 1191.4 1355.2 1192.1 1357.5 C1193.7 1363 1195.2 1368.5 1196.6 1374.1 C1203.5 1400.8 1216.7 1421.2 1240.5 1436.2 C1259.3 1446.9 1282.2 1451.5 1303.4 1446.2 C1305.9 1445.5 1308.4 1444.8 1311 1444 C1312 1443.7 1312 1443.7 1317.2 1442.2 C1337.1 1434.6 1353.2 1419.8 1363 1401 C1373.3 1373.8 1373.4 1350.5 1362 1323.2 C1348.4 1297.2 1324.1 1282.7 1297 1274 C1292.7 1272.9 1288.5 1272 1284.2 1271 C1259 1264.8 1237.6 1251.8 1219 1234 C1217.6 1232.7 1216.3 1231.4 1214.9 1230.1 C1210.5 1225.5 1206.6 1220.6 1202.7 1215.5 C1200.3 1212.4 1197.8 1209.4 1195.3 1206.3 C1191 1201 1187 1195.5 1183 1190 C1179.2 1184.9 1176 1181 1171 1177 C1169.1 1173.2 1169.5 1170.2 1170 1166 C1173.6 1160.9 1173.6 1160.9 1178 1156 C1185.2 1146.5 1192.4 1136.9 1199 1127 C1199.9 1125.6 1200.8 1124.3 1201.8 1122.9 C1207.3 1114.6 1212.7 1106.4 1218 1098 C1219.4 1095.8 1220.8 1093.7 1222.2 1091.4 C1234.6 1072.1 1246 1052.4 1256.1 1031.8 C1257.4 1029.2 1258.7 1026.6 1260 1024.1 C1264.1 1016 1267.8 1007.8 1271.2 999.4 C1273.1 994.8 1275 990.1 1277 985.5 C1287.8 959.9 1298.3 934.6 1304.9 907.5 C1306.3 901.9 1308.2 896.5 1310 891 C1311.8 884.4 1313.4 877.7 1315 871 C1315.5 869 1315.9 867.1 1316.4 865 C1318.3 856.6 1319.9 848.1 1321.4 839.6 C1321.7 837.9 1322.1 836.2 1322.4 834.4 C1324.7 821.3 1326.5 808.2 1328.1 795 C1328.9 788.4 1329.9 781.9 1330.9 775.4 C1331.1 774.5 1331.1 774.5 1331.8 770.2 C1333 766 1333 766 1338 761 C1342.5 759.8 1342.5 759.8 1348 759 C1350 758.7 1352 758.3 1354 758 C1401.2 750.3 1439.2 757.3 1482.5 777 C1501.1 785.4 1518.2 791.3 1538.8 791.3 C1540.1 791.3 1540.1 791.3 1546.5 791.4 C1557.3 790.8 1566.7 788.5 1576.5 784.1 C1578 783.4 1579.5 782.7 1581 782 C1599.6 772.5 1611.7 754.9 1619 736 C1626.5 712.4 1624.5 687.3 1613.4 665.3 C1601.3 643.8 1582.1 630.1 1558.9 623.2 C1530.9 616.2 1502.9 625 1478.3 638.7 C1472.3 641.9 1466.2 644.4 1460 647 C1459.3 647.3 1459.3 647.3 1455.9 648.9 C1419.6 664.3 1374.6 663.7 1337 653 C1330.2 647.6 1331 644.6 1330 636 C1329.6 632.7 1329.2 629.4 1328.7 626 C1328.5 624.2 1328.3 622.4 1328 620.5 C1323.5 585 1316.5 550.3 1305.3 516.3 C1304.1 512.2 1303 508.2 1302.1 504.1 C1298.7 490.3 1293.5 477 1288 464 C1286.7 460.3 1285.3 456.7 1284 453 C1282.4 449 1280.7 445 1279 441 C1278.5 439.8 1278 438.5 1277.5 437.3 C1270.6 420 1262.4 403.3 1253.6 386.9 C1251.7 383.4 1249.9 379.8 1248.1 376.3 C1242.8 366 1237.4 356 1230.9 346.4 C1227.5 341.2 1224.1 335.9 1220.8 330.6 C1219.6 328.9 1218.5 327.1 1217.4 325.3 C1215 321.6 1212.7 317.9 1210.3 314.2 C1203.8 304 1196.4 294.5 1189 285 C1187.9 283.6 1186.9 282.1 1185.8 280.6 C1184.9 279.8 1184 278.9 1183 278 C1176 279 1176 279 1171 284 C1169.3 285.5 1167.7 287 1165.9 288.6 C1154 299.4 1142.5 310.8 1132 323 C1129.7 325.4 1127.4 327.7 1125 330 C1120 335 1120 335 1116 340 C1114.7 341.1 1113.4 342.3 1112.1 343.4 C1108 347 1108 347 1103 353 C1103 360.4 1107.6 364.4 1112 370 C1116.8 376.7 1121.4 383.6 1125.8 390.6 C1127.6 393.4 1129.6 396.2 1131.5 398.9 C1135.3 404.5 1138.6 410.3 1141.9 416.3 C1143.8 419.6 1145.9 422.8 1148 426 C1149.3 428.4 1150.5 430.9 1151.8 433.4 C1152.1 434.1 1152.1 434.1 1153.9 437.7 C1154.6 439.1 1155.3 440.5 1156 442 C1157.3 444.6 1158.7 447.3 1160 449.9 C1178 485.9 1191.5 522.5 1201.9 561.3 C1203.1 565.6 1204.2 569.9 1205.5 574.1 C1212 597.3 1217 623 1217 647 C1214 651 1214 651 1210 652 C1205.7 652.1 1201.4 652.1 1197.1 652.1 C1196.4 652.1 1196.4 652.1 1193.1 652.1 C1190.2 652.1 1187.3 652.1 1184.4 652 C1179.8 652 1175.3 652 1170.7 652 C1157.7 652 1144.7 651.9 1131.7 651.9 C1123.8 651.9 1115.8 651.9 1107.9 651.8 C1104.9 651.8 1101.8 651.8 1098.8 651.8 C1094.6 651.8 1090.3 651.8 1086.1 651.8 C1083.7 651.8 1081.3 651.8 1078.8 651.8 C1063.4 652.3 1051.8 655.5 1039.9 665.4 C1030 677.6 1024.9 690.1 1024.8 705.7 C1024.7 707.6 1024.7 709.4 1024.7 711.4 C1025.5 724.9 1031.6 736.8 1040.2 747 C1058 762 1076.2 761.2 1098.2 761.1 C1100.4 761.1 1102.5 761.1 1104.8 761.1 C1114 761 1123.2 761 1132.4 761 C1177.5 760.9 1177.5 760.9 1199.1 761.4 C1200.6 761.5 1202.1 761.5 1203.6 761.6 C1213.6 761.9 1213.6 761.9 1217 763 C1217.4 781.3 1214.6 798.1 1211 816 C1210.4 819.5 1209.9 823 1209.3 826.5 C1203.9 857.6 1194.3 888.3 1184 918 C1183.4 919.7 1182.8 921.4 1182.3 923.2 C1181.7 924.9 1181.1 926.7 1180.4 928.5 C1179.9 930.1 1179.4 931.7 1178.8 933.3 C1176.9 938.4 1174.5 943.1 1172 948 C1170.4 951.4 1168.7 954.8 1167.1 958.2 C1162.6 967.7 1158 977.2 1153.3 986.6 C1152.7 987.8 1152.1 989 1151.5 990.3 C1145.6 1002 1139.2 1013.3 1132.1 1024.4 C1128.3 1030.3 1124.6 1036.3 1120.9 1042.3 C1116.1 1050 1110.7 1057 1105 1064 C1103.6 1065.8 1102.2 1067.5 1100.8 1069.3 C1099.5 1070.9 1098.3 1072.4 1097 1074 C1095.7 1075.7 1094.4 1077.3 1093.1 1079.1 C1090 1083 1090 1083 1088 1084 C1078.5 1084 1076.2 1080.2 1069.7 1073.7 C1067.3 1071.3 1064.9 1068.9 1062.6 1066.5 C1060.1 1064.1 1057.6 1061.8 1055.1 1059.6 C1049.4 1054.6 1044.3 1049.3 1039 1043.9 C1036.6 1041.6 1034.2 1039.3 1031.6 1037.1 C1025.2 1031.3 1019.1 1025.2 1013 1019 C1010.3 1016.2 1007.5 1013.5 1004.7 1010.7 C1000.4 1006.3 996.1 1002 991.8 997.6 C987.6 993.4 983.4 989.2 979.3 985 C978 983.7 976.7 982.4 975.4 981.1 C963.5 969.2 953.9 962.2 937 960 C917.8 960.2 900.8 966.4 887 980 C875.9 994.9 873.9 1007.8 876 1026 C879 1042.3 891.2 1052.6 902.5 1063.8 C903.9 1065.1 905.3 1066.5 906.7 1067.9 C913 1074.1 919.3 1080.2 926 1086 C930.3 1090.2 934.5 1094.5 938.8 1098.8 C942.7 1102.7 946.8 1106.4 951 1110 C955.6 1114.5 960.1 1118.9 964.2 1123.8 C968.3 1128.4 972.6 1132.7 976.9 1137.1 C978.5 1138.6 980 1140.1 981.5 1141.7 C987.5 1147.4 993.7 1152.7 1000 1158 C1003.4 1161.4 1003.4 1161.4 1006 1165 C1005 1172 1005 1172 1001.4 1175.2 C989.8 1183.3 989.8 1183.3 984 1187.2 C978.6 1191 973.3 1195 968 1199 C961.7 1203.6 955.2 1207.8 948.5 1211.8 C944.8 1214.1 941 1216.5 937.3 1218.9 C930.1 1223.4 922.7 1227.6 915.2 1231.7 C911.6 1233.7 908 1235.7 904.5 1237.8 C895.7 1242.9 886.7 1247.1 877.5 1251.4 C874.9 1252.6 872.3 1253.9 869.7 1255.2 C863.1 1258.4 856.2 1260.9 849.3 1263.4 C844.4 1265.1 839.6 1267 834.8 1268.9 C823.1 1273.7 811.1 1277.4 799 1281 C797.6 1281.4 796.3 1281.9 794.9 1282.3 C783.4 1286.1 771.8 1289.2 760 1292 C758.8 1292.3 758.8 1292.3 752.9 1293.7 C693.6 1307.9 693.6 1307.9 671 1306 C665.1 1300.1 665.9 1296.3 665.9 1288.1 C665.9 1286.6 665.9 1285.1 665.9 1283.5 C665.9 1281.9 665.9 1280.2 665.9 1278.6 C665.9 1275.1 665.9 1271.5 665.9 1268 C665.9 1260.5 665.8 1253.1 665.8 1245.6 C665.8 1231.6 665.7 1217.7 665.7 1203.7 C665.8 1194.1 665.7 1184.4 665.7 1174.7 C665.7 1171 665.7 1167.3 665.7 1163.6 C665.7 1158.4 665.7 1153.3 665.6 1148.1 C665.7 1146.6 665.7 1145.1 665.7 1143.5 C665.5 1127.6 661 1114.8 650.2 1102.8 C639.3 1093 627.5 1087.9 612.9 1087.8 C611.1 1087.7 609.3 1087.7 607.4 1087.7 C592.7 1088.6 580.1 1095.5 570 1106 C560.5 1119.4 558.9 1130.3 558.8 1146.4 C558.8 1148.1 558.8 1149.8 558.8 1151.5 C558.8 1155.1 558.8 1158.7 558.8 1162.4 C558.8 1168.1 558.7 1173.8 558.7 1179.6 C558.6 1195.9 558.6 1212.2 558.5 1228.5 C558.5 1238.5 558.5 1248.5 558.4 1258.5 C558.4 1262.3 558.4 1266.1 558.4 1269.9 C558.4 1275.2 558.3 1280.5 558.3 1285.9 C558.3 1287.4 558.3 1289 558.3 1290.7 C558.2 1301.5 558.2 1301.5 556 1306 C546.5 1310.8 528.8 1305.6 518.6 1304.3 C516.6 1304.1 514.5 1303.8 512.4 1303.6 C498.7 1301.9 485.4 1299.3 472 1296 C468.9 1295.3 465.7 1294.6 462.6 1293.9 C441.8 1289 421 1282.5 401 1275 C398.4 1274.1 395.7 1273.2 393.1 1272.2 C374.3 1265.6 355.7 1258.1 338 1249 C336.5 1248.3 335.1 1247.6 333.6 1246.8 C320.1 1240 306.9 1232.9 294 1225 C292.5 1224.1 291.1 1223.2 289.6 1222.3 C269.4 1210.1 249.5 1197.6 231.3 1182.6 C227.3 1179.5 223.2 1176.8 219 1174 C217 1171 217 1171 217 1165 C218.6 1163.3 220.3 1161.7 222 1160 C224.9 1156.8 227.9 1153.6 230.8 1150.4 C234 1147 234 1147 237.7 1143.8 C241.8 1140.2 245.7 1136.4 249.5 1132.6 C251 1131.1 252.4 1129.7 253.9 1128.2 C255.4 1126.7 257 1125.1 258.6 1123.5 C260.2 1121.9 261.8 1120.3 263.4 1118.7 C268.5 1113.6 273.6 1108.5 278.7 1103.4 C282.1 1099.9 285.6 1096.5 289 1093 C296.6 1085.5 304.1 1077.9 311.7 1070.3 C319.8 1062.2 327.9 1054.1 336 1046 C345 1034.8 347 1022 346 1008 C342.2 991.7 335.9 980.8 322.5 970.6 C306.1 961.2 290.1 959 271.6 962.1 C260.7 965.8 253.1 972.5 245.1 980.6 C243.5 982.3 241.9 983.9 240.3 985.6 C238.9 987.1 237.4 988.5 236 990 C234.4 991.7 232.7 993.3 231 995 C229.3 996.7 227.5 998.5 225.8 1000.3 C223.7 1002.3 221.7 1004.3 219.7 1006.4 C218.7 1007.4 217.7 1008.4 216.6 1009.5 C212.6 1013.5 208.6 1017.5 204.3 1021.2 C199.1 1025.8 194.3 1030.6 189.4 1035.5 C188.4 1036.5 187.5 1037.5 186.4 1038.5 C183.3 1041.7 180.1 1044.8 177 1048 C172.9 1052.2 168.7 1056.3 164.6 1060.5 C162.7 1062.3 160.9 1064.2 159 1066.1 C154.8 1070.2 150.5 1074.2 146 1078 C145.3 1078.6 145.3 1078.6 141.8 1081.9 C138 1085 138 1085 133 1085 C125.3 1077.5 119.2 1068.7 113 1060 C110.8 1056.9 108.5 1053.8 106.2 1050.7 C79.4 1013.4 57.6 972.9 41 930 C40.5 928.7 40 927.3 39.4 925.9 C23.1 882.8 12.5 838.8 5 793.4 C4.7 791.5 4.4 789.6 4 787.7 C3.8 785.9 3.5 784.1 3.2 782.3 C2.9 780.7 2.7 779.1 2.4 777.5 C2 772.8 2.3 768.7 3 764 C9.7 761.1 12.5 760.7 19.5 760.7 C20.5 760.7 20.5 760.7 25.6 760.8 C27.8 760.8 30 760.8 32.2 760.9 C37.2 760.9 42.1 760.9 47 760.9 C48.4 761 49.7 761 51.1 761 C69.8 761 88.4 760.9 107.1 760.8 C111.2 760.8 115.3 760.7 119.4 760.7 C125.3 760.7 131.1 760.7 137 760.6 C137.8 760.6 137.8 760.6 142.3 760.6 C158.1 760.4 169.3 756.2 181.7 745.9 C193.7 731.7 197.5 716.3 196 698 C193.1 684 187.2 671.2 176 662 C163.6 654.9 152.9 652.6 138.6 652.6 C137.2 652.6 135.8 652.6 134.4 652.6 C129.8 652.5 125.2 652.5 120.6 652.5 C117.4 652.5 114.2 652.5 111 652.5 C102.6 652.4 94.2 652.4 85.8 652.4 C72.3 652.4 58.8 652.3 45.4 652.2 C40.7 652.2 35.9 652.2 31.2 652.2 C28.4 652.2 25.5 652.2 22.6 652.2 C20.1 652.2 17.6 652.1 15 652.1 C9 652 9 652 4 651 C3 644.4 3.2 638.8 4.3 632.2 C4.6 630.4 4.9 628.5 5.2 626.6 C5.5 624.7 5.8 622.7 6.1 620.8 C6.4 618.9 6.7 617 7 615 C9.1 602.2 11.9 589.6 15 577 C15.6 574.3 16.3 571.5 16.9 568.8 C23 542.7 30.9 516.8 41 492 C41.7 490.2 42.4 488.5 43.1 486.7 C55.5 455.8 71.8 427.5 88.9 399.1 C89.6 398 90.3 396.8 91.1 395.6 C95.1 388.9 99.4 382.4 104 376 C105.1 374.4 106.2 372.8 107.4 371.1 C126 344.8 126 344.8 134 340 C145.4 341.9 153.3 353.1 161.2 361.1 C162.4 362.4 163.7 363.6 165 364.9 C170.4 370.3 175.7 375.7 181.1 381.1 C185 385 188.9 388.9 192.8 392.9 C194 394.1 195.2 395.3 196.5 396.5 C202.1 402.2 207.9 407.8 214 413 C217.3 416.2 220.5 419.5 223.7 422.7 C225.9 424.9 228.2 427.1 230.6 429.1 C237.7 435.4 244.1 442.2 250.7 448.9 C263.7 462.1 274.1 466.8 293 467 C308.3 466.5 320.6 461.3 332 451 C344.3 436 346.8 422.7 346 404 C343 389.5 335.4 378.2 324 369 C320.5 365.5 317 362 313.6 358.5 C311.5 356.4 309.4 354.3 307.3 352.2 C306.3 351.1 305.2 350 304.1 348.9 C301.4 346.2 298.7 343.6 296 341 C295.3 341 294.7 341 294 341 C293.3 339.7 292.7 338.4 292 337 C290.1 335.1 288.1 333.3 286.1 331.6 C282.3 328.2 279.2 325.1 276 321 C273.3 318.7 270.7 316.3 268 314 C265.5 311.5 263 309.1 260.5 306.6 C259.1 305.2 257.7 303.8 256.3 302.4 C253.4 299.5 250.6 296.5 247.7 293.6 C246.3 292.3 244.9 290.9 243.5 289.4 C242.9 288.8 242.9 288.8 239.7 285.6 C235.9 281.9 232 278.5 228 275 C217.2 265.2 217.2 265.2 216 257 C230.5 242.5 247.6 230.6 265 220 C269 217.4 273 214.7 277 212 C301.9 195.2 328.4 181.8 356 170 C358 169.2 359.9 168.3 361.9 167.4 C368.2 164.9 374.6 162.6 381 160.4 C385.7 158.7 390.4 156.9 395 155 C398.7 153.7 402.3 152.3 406 151 C407.7 150.4 409.4 149.8 411.1 149.1 C436.1 140.1 461.2 133.6 487.3 129.2 C494.8 127.9 502.2 126.4 509.6 124.8 C514 124 514 124 519.4 123.6 C524 123 524 123 527 120 C527.4 115.8 527.4 115.8 527.5 110.4 C527.5 108.3 527.5 106.3 527.5 104.2 C527.6 102 527.6 99.8 527.6 97.6 C527.6 95.3 527.6 93.1 527.7 90.8 C527.7 86 527.7 81.2 527.8 76.5 C527.8 69.2 527.9 61.9 528 54.6 C528 49.9 528 45.3 528.1 40.7 C528.1 38.5 528.1 36.3 528.2 34 C528.2 33 528.2 33 528.2 27.9 C528.2 26.1 528.2 24.3 528.2 22.5 C528 18 528 18 526 13 C501.1 0.6 438.6 24.1 413 31 C411.7 31.3 410.4 31.7 409 32.1 C395 35.8 381.1 39.8 367.4 44.4 C366 44.9 364.6 45.4 363.1 45.8 C354.9 48.6 347 51.6 339 55 C335.5 56.3 332 57.6 328.6 58.9 C320.5 62 312.8 65.3 305 69 C303.4 69.6 301.9 70.2 300.2 70.8 C292.6 74 285.3 78 278 82 C274.7 83.8 271.4 85.5 268.1 87.2 C267.3 87.7 267.3 87.7 263.2 89.8 C260.1 91.4 256.9 93 253.7 94.6 C247.3 97.8 241.2 101.4 235 105 C232.5 106.4 230.1 107.8 227.6 109.2 C222.7 112 217.8 115 213 118 C211.9 118.6 210.8 119.3 209.7 120 C196.4 127.8 184.1 136.8 171.8 146.1 C168.5 148.6 165.2 151.1 161.8 153.5 C157.4 156.9 153.4 160.4 149.3 164.2 C144.5 168.7 139.9 172.9 134 176 C126.7 175 125.6 174.3 120.4 169.6 C111.7 161.8 102.5 154.6 93 147.6 C87.3 143.2 81.8 138.7 76.4 133.9 C73.3 131.2 70.1 128.6 66.9 126.1 C62 122 62 122 58 117 C57.3 117 56.7 117 56 117 C55.3 115.7 54.7 114.4 54 113 C52.9 111.5 51.9 110 50.8 108.4 C40 92.8 34.3 75.5 28.6 57.5 C22.6 38.6 16.2 23.1 3 8 C1.7 6.5 0.4 4.9 -0.9 3.3 C-5.5 -1.6 -10.4 -5.2 -16 -9 C-17.4 -10 -18.9 -11 -20.4 -12.1 C-56.6 -31 -98.6 -24.7 -127.1 4.8 Z " fill="#2DD4BF" transform="translate(411,326)"/>
<path d="M0 0 C2.5 -0 5.1 -0 7.7 -0 C29.7 0.7 48.8 11.4 63.9 27.1 C80.2 44.8 88.2 65.9 87.5 89.9 C84.5 117.6 71.3 136.5 51.6 155.1 C34 167.6 13.1 173.6 -8 177.1 C-32.7 181.4 -53.3 197.5 -71.2 214.2 C-73.8 216.5 -76.5 218.9 -79.2 221.2 C-79.9 221.8 -79.9 221.8 -83.4 225.1 C-87.2 228.2 -87.2 228.2 -91.2 229.2 C-94.2 225.2 -94.2 225.2 -95.4 221.1 C-97.6 215.2 -100.7 210.4 -104.2 205.2 C-105.5 203.2 -106.8 201.2 -108.2 199.2 C-119.5 188.7 -133.3 178.2 -149.2 178.2 C-149.8 177.9 -150.5 177.5 -151.2 177.2 C-151.2 175.5 -151.2 173.9 -151.2 172.2 C-148 169.1 -144.6 166.1 -141.2 163.2 C-114.1 139.6 -96.8 115.2 -88.8 79.8 C-83.8 58.1 -75.7 41.2 -60.2 25.2 C-59.1 24 -58.1 22.8 -57 21.6 C-40.7 7.1 -21.6 0.1 0 0 Z " fill="#F5F2EC" transform="translate(1695.1875,303.8125)"/>
</svg>
